<?xml version="1.0" encoding="utf-8"?>
<!-- Generator: Adobe Illustrator 16.0.0, SVG Export Plug-In . SVG Version: 6.00 Build 0)  -->
<!DOCTYPE svg PUBLIC "-//W3C//DTD SVG 1.1//EN" "http://www.w3.org/Graphics/SVG/1.1/DTD/svg11.dtd">
<svg version="1.1" xmlns="http://www.w3.org/2000/svg" xmlns:xlink="http://www.w3.org/1999/xlink" x="0px" y="0px" width="44px"
	 height="43.479px" viewBox="0 0 44 43.479" enable-background="new 0 0 44 43.479" xml:space="preserve">
<g id="Layer_2" display="none">
</g>
<g id="Layer_1">
	<g>
		<path fill="#373636" d="M4.221,6.873C1.893,6.873,0,8.768,0,11.096v28.263c0,2.327,1.893,4.221,4.221,4.221h3.455
			c2.328,0,4.221-1.894,4.221-4.221V11.096c0-2.328-1.893-4.223-4.221-4.223H4.221z M9.48,11.096v28.263
			c0,0.995-0.809,1.805-1.805,1.805H4.221c-0.998,0-1.807-0.809-1.807-1.805V11.096c0-0.996,0.809-1.807,1.807-1.807h3.455
			C8.672,9.289,9.48,10.1,9.48,11.096z"/>
		<path fill="#373636" d="M20.272,13.889c-2.328,0-4.221,1.895-4.221,4.221v21.149c0,2.327,1.893,4.221,4.221,4.221h3.455
			c2.328,0,4.221-1.894,4.221-4.221V18.109c0-2.326-1.893-4.221-4.221-4.221H20.272z M25.532,18.109v21.149
			c0,0.995-0.809,1.805-1.805,1.805h-3.455c-0.996,0-1.805-0.809-1.805-1.805V18.109c0-0.994,0.809-1.805,1.805-1.805h3.455
			C24.724,16.305,25.532,17.113,25.532,18.109z"/>
		<path fill="#373636" d="M36.322,0c-2.326,0-4.221,1.893-4.221,4.22v35.039c0,2.327,1.895,4.221,4.221,4.221h3.455
			c2.328,0,4.223-1.894,4.223-4.221V4.22C44,1.893,42.105,0,39.777,0H36.322z M41.584,4.22v35.039c0,0.995-0.811,1.805-1.807,1.805
			h-3.455c-0.994,0-1.805-0.809-1.805-1.805V4.22c0-0.995,0.811-1.804,1.805-1.804h3.455C40.773,2.416,41.584,3.225,41.584,4.22z"/>
	</g>
</g>
</svg>
