<?xml version="1.0" encoding="utf-8"?>
<!-- Generator: Adobe Illustrator 16.0.0, SVG Export Plug-In . SVG Version: 6.00 Build 0)  -->
<!DOCTYPE svg PUBLIC "-//W3C//DTD SVG 1.1//EN" "http://www.w3.org/Graphics/SVG/1.1/DTD/svg11.dtd">
<svg version="1.1" id="Layer_1" xmlns="http://www.w3.org/2000/svg" xmlns:xlink="http://www.w3.org/1999/xlink" x="0px" y="0px"
	 width="32px" height="29.629px" viewBox="0 0 32 29.629" enable-background="new 0 0 32 29.629" xml:space="preserve">
<g id="bg" display="none">
	<rect x="-188.004" y="-4.102" display="inline" fill="#FFFFFF" width="338.5" height="49.167"/>
</g>
<g id="Layer_1_1_">
	<g>
		<g>
			<path fill="#363636" stroke="#363636" stroke-width="0.2" stroke-miterlimit="10" d="M57.471,20.035
				c0.053,0.053,0.108,0.1,0.169,0.139c0.028,0.02,0.058,0.031,0.087,0.047c0.034,0.02,0.067,0.041,0.104,0.057
				c0.036,0.016,0.075,0.023,0.112,0.035c0.031,0.01,0.063,0.021,0.095,0.027c0.071,0.014,0.146,0.021,0.218,0.021
				s0.146-0.008,0.217-0.021c0.034-0.008,0.064-0.02,0.098-0.027c0.037-0.012,0.074-0.021,0.109-0.035
				c0.038-0.018,0.073-0.037,0.109-0.059c0.025-0.016,0.056-0.025,0.082-0.045c0.061-0.041,0.117-0.086,0.17-0.139l6.651-6.653
				c0.434-0.434,0.434-1.135,0-1.568s-1.136-0.433-1.567,0l-4.761,4.762V0.401c0-0.612-0.499-1.108-1.108-1.108
				c-0.611,0-1.109,0.496-1.109,1.108v16.175l-4.76-4.762c-0.433-0.433-1.135-0.433-1.568,0c-0.433,0.433-0.433,1.134,0,1.568
				L57.471,20.035z"/>
			<path fill="#363636" stroke="#363636" stroke-width="0.2" stroke-miterlimit="10" d="M69.344,19.252
				c-0.612,0-1.108,0.498-1.108,1.109v5.543h-19.96v-5.545c0-0.611-0.496-1.107-1.108-1.107s-1.108,0.496-1.108,1.107v6.652
				c0,0.611,0.496,1.109,1.108,1.109h22.176c0.612,0,1.109-0.498,1.109-1.109v-6.652C70.453,19.75,69.956,19.252,69.344,19.252z"/>
		</g>
	</g>
</g>
<g id="blue" display="none">
</g>
<g id="grey" display="none">
</g>
<path fill="#363636" d="M10.566,11.359c-1.619,0-3.047,1.079-3.491,2.634H3v1.974h4.075c0.533,1.93,2.533,3.06,4.456,2.52
	c1.225-0.336,2.184-1.295,2.52-2.52H29v-1.974H14.051C13.613,12.438,12.185,11.359,10.566,11.359z M10.566,16.628
	c-0.908,0-1.65-0.736-1.65-1.644s0.743-1.65,1.65-1.65s1.644,0.743,1.644,1.65S11.474,16.628,10.566,16.628z"/>
<path fill="#363636" d="M21.427,2.314c-1.618-0.006-3.047,1.073-3.49,2.628H3v1.98h14.937c0.539,1.923,2.532,3.053,4.462,2.52
	c1.219-0.343,2.184-1.301,2.514-2.52H29v-1.98h-4.088C24.468,3.387,23.046,2.308,21.427,2.314z M21.427,7.576
	c-0.914,0-1.644-0.736-1.644-1.644s0.729-1.644,1.644-1.644c0.908,0,1.645,0.736,1.645,1.644S22.335,7.576,21.427,7.576z"/>
<path fill="#363636" d="M21.427,20.411c-1.618,0-3.047,1.072-3.49,2.634H3v1.975h14.937c0.539,1.93,2.532,3.06,4.462,2.526
	c1.219-0.343,2.184-1.308,2.514-2.526H29v-1.975h-4.088C24.468,21.483,23.046,20.411,21.427,20.411z M21.427,25.68
	c-0.914,0-1.644-0.736-1.644-1.645c0-0.914,0.729-1.65,1.644-1.65c0.908,0,1.645,0.736,1.645,1.65
	C23.071,24.943,22.335,25.68,21.427,25.68z"/>
</svg>
