<?xml version="1.0" encoding="utf-8"?>
<!-- Generator: Adobe Illustrator 16.0.0, SVG Export Plug-In . SVG Version: 6.00 Build 0)  -->
<!DOCTYPE svg PUBLIC "-//W3C//DTD SVG 1.1 Tiny//EN" "http://www.w3.org/Graphics/SVG/1.1/DTD/svg11-tiny.dtd">
<svg version="1.1" baseProfile="tiny" id="Layer_1" xmlns="http://www.w3.org/2000/svg" xmlns:xlink="http://www.w3.org/1999/xlink"
	 x="0px" y="0px" width="44px" height="44px" viewBox="0 0 44 44" xml:space="preserve">
<g>
	<g>
		<path fill="#373636" d="M11.288,22.853c-6.086,0-11.038-4.952-11.038-11.039c0-6.086,4.952-11.039,11.038-11.039
			c6.087,0,11.038,4.952,11.038,11.039C22.326,17.901,17.375,22.853,11.288,22.853z M11.288,3.081c-4.814,0-8.732,3.918-8.732,8.734
			c0,4.816,3.918,8.734,8.732,8.734c4.815,0,8.732-3.918,8.732-8.734C20.021,6.999,16.104,3.081,11.288,3.081z"/>
	</g>
	<g>
		<path fill="#373636" d="M29.143,15.366c-4.022,0-7.296-3.272-7.296-7.295c0-4.023,3.274-7.295,7.296-7.295
			s7.295,3.272,7.295,7.295C36.438,12.093,33.165,15.366,29.143,15.366z M29.143,3.081c-2.75,0-4.989,2.24-4.989,4.99
			s2.239,4.988,4.989,4.988c2.75,0,4.989-2.238,4.989-4.988S31.893,3.081,29.143,3.081z"/>
	</g>
	<g>
		<path fill="#373636" d="M9.898,34.678c-3.279,0-5.946-2.668-5.946-5.946c0-3.279,2.667-5.946,5.946-5.946
			c3.278,0,5.946,2.667,5.946,5.946C15.844,32.009,13.176,34.678,9.898,34.678z M9.898,25.091c-2.007,0-3.641,1.631-3.641,3.64
			c0,2.006,1.634,3.64,3.641,3.64c2.006,0,3.641-1.633,3.641-3.64C13.539,26.723,11.904,25.091,9.898,25.091z"/>
	</g>
	<g>
		<path fill="#373636" d="M29.788,43.225c-7.699,0-13.962-6.263-13.962-13.961s6.263-13.962,13.962-13.962
			c7.698,0,13.962,6.264,13.962,13.962S37.486,43.225,29.788,43.225z M29.788,17.479c-6.497,0-11.784,5.287-11.784,11.785
			s5.287,11.783,11.784,11.783c6.499,0,11.786-5.285,11.786-11.783S36.287,17.479,29.788,17.479z"/>
	</g>
</g>
</svg>
