<?xml version="1.0" encoding="utf-8"?>
<!-- Generator: Adobe Illustrator 16.0.0, SVG Export Plug-In . SVG Version: 6.00 Build 0)  -->
<!DOCTYPE svg PUBLIC "-//W3C//DTD SVG 1.1//EN" "http://www.w3.org/Graphics/SVG/1.1/DTD/svg11.dtd">
<svg version="1.1" id="Layer_1" xmlns="http://www.w3.org/2000/svg" xmlns:xlink="http://www.w3.org/1999/xlink" x="0px" y="0px"
	 width="44px" height="43.479px" viewBox="0 0 44 43.479" enable-background="new 0 0 44 43.479" xml:space="preserve">
<g id="Layer_2" display="none">
</g>
<line fill="none" stroke="#373636" stroke-width="1.4" stroke-linejoin="round" stroke-miterlimit="10" stroke-dasharray="2,2,2,2,2,2" x1="43.186" y1="42.319" x2="43.186" y2="0.323"/>
<g id="Layer_1_2_">
	<g>
		<path fill="#373636" d="M7.579,19.458c-1.842,0-3.342,1.175-3.342,2.62v17.531c0,1.442,1.5,2.618,3.342,2.618h2.734
			c1.844,0,3.342-1.175,3.342-2.618V22.077c0-1.444-1.5-2.62-3.342-2.62H7.579z M11.741,22.077v17.531
			c0,0.617-0.64,1.119-1.429,1.119H7.579c-0.79,0-1.431-0.502-1.431-1.119V22.077c0-0.617,0.641-1.12,1.431-1.12h2.734
			C11.101,20.956,11.741,21.459,11.741,22.077z"/>
		<path fill="#373636" d="M20.284,23.81c-1.843,0-3.342,1.175-3.342,2.618v13.118c0,1.443,1.5,2.619,3.342,2.619h2.735
			c1.842,0,3.342-1.175,3.342-2.619V26.427c0-1.442-1.499-2.617-3.342-2.617H20.284L20.284,23.81z M24.448,26.427v13.119
			c0,0.617-0.641,1.119-1.428,1.119h-2.735c-0.788,0-1.429-0.501-1.429-1.119V26.427c0-0.615,0.641-1.119,1.429-1.119h2.735
			C23.808,25.308,24.448,25.81,24.448,26.427z"/>
		<path fill="#373636" d="M32.989,15.195c-1.841,0-3.34,1.175-3.34,2.619v21.733c0,1.443,1.498,2.619,3.34,2.619h2.734
			c1.843,0,3.343-1.175,3.343-2.619V17.812c0-1.444-1.5-2.619-3.343-2.619L32.989,15.195L32.989,15.195z M37.155,17.812v21.734
			c0,0.617-0.642,1.119-1.43,1.119H32.99c-0.786,0-1.428-0.502-1.428-1.119V17.812c0-0.617,0.642-1.119,1.428-1.119h2.735
			C36.514,16.694,37.155,17.195,37.155,17.812z"/>
	</g>
</g>
<g transform="translate(0,-952.36218)">
	<path fill="#373636" d="M37.685,956.645c-1.515,0-2.764,1.209-2.764,2.678c0,0.581,0.199,1.12,0.53,1.562l-6.281,8.354
		c-0.228-0.059-0.461-0.099-0.707-0.099c-1.188,0-2.206,0.757-2.593,1.786h-5.876c-0.388-1.029-1.405-1.786-2.593-1.786
		c-1.517,0-2.766,1.21-2.766,2.679c0,0.583,0.201,1.122,0.533,1.563l-6.282,8.354c-0.228-0.059-0.461-0.098-0.707-0.098
		c-1.517,0-2.766,1.213-2.766,2.68s1.25,2.678,2.766,2.678c1.516,0,2.766-1.211,2.766-2.678c0-0.582-0.2-1.121-0.533-1.564
		l6.268-8.354c0.23,0.064,0.47,0.1,0.72,0.1c1.196,0,2.225-0.747,2.607-1.784h5.848c0.381,1.035,1.412,1.784,2.607,1.784
		c1.518,0,2.766-1.211,2.766-2.679c0-0.583-0.199-1.12-0.533-1.562l6.269-8.355c0.231,0.062,0.472,0.099,0.72,0.099
		c1.518,0,2.766-1.209,2.766-2.677C40.452,957.853,39.203,956.645,37.685,956.645z M37.685,958.429c0.521,0,0.924,0.388,0.924,0.894
		c0,0.504-0.401,0.893-0.924,0.893c-0.52,0-0.92-0.388-0.92-0.893C36.765,958.817,37.165,958.429,37.685,958.429z M17.402,970.926
		c0.52,0,0.92,0.389,0.92,0.893c0,0.505-0.4,0.894-0.92,0.894c-0.521,0-0.923-0.389-0.923-0.894
		C16.479,971.315,16.882,970.926,17.402,970.926z M28.466,970.926c0.52,0,0.922,0.389,0.922,0.893c0,0.505-0.402,0.894-0.922,0.894
		c-0.521,0-0.922-0.389-0.922-0.894C27.544,971.315,27.944,970.926,28.466,970.926z M8.18,983.424c0.521,0,0.922,0.389,0.922,0.893
		c0,0.502-0.402,0.893-0.922,0.893s-0.922-0.391-0.922-0.893C7.258,983.813,7.66,983.424,8.18,983.424z"/>
</g>
<line fill="none" stroke="#373636" stroke-width="1.4" stroke-linejoin="round" stroke-miterlimit="10" stroke-dasharray="2,2,2,2,2,2" x1="0.794" y1="42.737" x2="0.794" y2="0.741"/>
</svg>
