<?xml version="1.0" encoding="utf-8"?>
<!-- Generator: Adobe Illustrator 16.0.0, SVG Export Plug-In . SVG Version: 6.00 Build 0)  -->
<!DOCTYPE svg PUBLIC "-//W3C//DTD SVG 1.1//EN" "http://www.w3.org/Graphics/SVG/1.1/DTD/svg11.dtd">
<svg version="1.1" id="Layer_1" xmlns="http://www.w3.org/2000/svg" xmlns:xlink="http://www.w3.org/1999/xlink" x="0px" y="0px"
	 width="44px" height="44px" viewBox="0 0 44 44" enable-background="new 0 0 44 44" xml:space="preserve">
<path fill="#363636" stroke="#363636" stroke-miterlimit="10" d="M41.486,1.859C41.431,1.862,41.375,1.87,41.32,1.88
	c-0.293,0.042-0.563,0.182-0.77,0.396L26.854,15.994V9.895c0.017-0.736-0.566-1.345-1.301-1.361
	c-0.058-0.002-0.116,0.001-0.175,0.007c-0.686,0.076-1.198,0.663-1.184,1.354v9.325c0,0.737,0.595,1.333,1.331,1.333h9.31
	c0.735,0.011,1.339-0.578,1.35-1.313c0.01-0.736-0.576-1.34-1.312-1.351c-0.013,0-0.025,0-0.038,0h-6.109L42.422,4.17
	c0.539-0.5,0.572-1.343,0.073-1.884C42.235,2.006,41.868,1.85,41.486,1.859z M2.869,1.671C2.137,1.743,1.603,2.395,1.674,3.127
	c0.031,0.317,0.174,0.614,0.405,0.834L15.775,17.68h-6.11c-0.734-0.01-1.338,0.578-1.349,1.313c-0.01,0.736,0.577,1.34,1.312,1.352
	c0.013,0,0.025,0,0.038,0h9.312c0.734,0,1.33-0.597,1.33-1.333V9.686c0.016-0.736-0.567-1.345-1.301-1.36
	c-0.058-0.001-0.117,0-0.174,0.007c-0.686,0.076-1.199,0.664-1.185,1.354v6.099L3.95,2.067C3.668,1.778,3.271,1.632,2.869,1.671z
	 M9.541,24.799c-0.735,0.035-1.303,0.66-1.268,1.395c0.034,0.736,0.658,1.305,1.393,1.271h6.089L2.079,41.161
	c-0.532,0.508-0.553,1.351-0.047,1.884c0.507,0.533,1.348,0.554,1.881,0.048c0.013-0.013,0.025-0.024,0.037-0.037l13.697-13.718
	v6.119c-0.01,0.735,0.577,1.342,1.312,1.351c0.734,0.011,1.339-0.577,1.349-1.313c0-0.013,0-0.025,0-0.038v-9.326
	c0-0.735-0.595-1.332-1.33-1.332H9.666C9.624,24.798,9.582,24.798,9.541,24.799z M26.023,24.591
	c-0.687,0.064-1.209,0.642-1.207,1.332v9.326c-0.009,0.735,0.578,1.341,1.313,1.352c0.734,0.01,1.338-0.579,1.35-1.314
	c0-0.012,0-0.024,0-0.037v-6.12l13.697,13.719c0.512,0.527,1.354,0.538,1.881,0.026c0.526-0.513,0.537-1.356,0.025-1.885
	c-0.011-0.012-0.023-0.024-0.037-0.036L29.369,27.255h6.089c0.734,0.011,1.341-0.577,1.35-1.313
	c0.011-0.736-0.576-1.341-1.311-1.352c-0.014,0-0.026,0-0.039,0h-9.311C26.105,24.589,26.063,24.589,26.023,24.591z"/>
</svg>
