<?xml version="1.0" encoding="utf-8"?>
<!-- Generator: Adobe Illustrator 16.0.0, SVG Export Plug-In . SVG Version: 6.00 Build 0)  -->
<!DOCTYPE svg PUBLIC "-//W3C//DTD SVG 1.1//EN" "http://www.w3.org/Graphics/SVG/1.1/DTD/svg11.dtd">
<svg version="1.1" id="Layer_1" xmlns="http://www.w3.org/2000/svg" xmlns:xlink="http://www.w3.org/1999/xlink" x="0px" y="0px"
	 width="27px" height="27px" viewBox="0 0 27 27" enable-background="new 0 0 27 27" xml:space="preserve">
<g>
	<path fill="#373636" stroke="#373636" stroke-width="0.5" stroke-miterlimit="10" d="M26.998,13.496c-0.001-0.001,0-0.001,0-0.003
		c0-0.001-0.003-0.003-0.003-0.005c-0.002-0.002-0.002-0.005-0.004-0.007c-0.003-0.002-0.003-0.003-0.005-0.004
		c-0.002-0.002-0.006-0.003-0.008-0.004c0-0.001-0.002-0.003-0.004-0.003l-11.195-2.251L13.528,0.024
		c-0.001-0.003-0.003-0.004-0.004-0.006c-0.001-0.003-0.002-0.005-0.003-0.007c-0.002-0.002-0.003-0.003-0.005-0.004
		c-0.002-0.002-0.005-0.003-0.007-0.004C13.507,0.002,13.506,0,13.504,0c-0.001-0.001-0.002,0-0.003,0S13.5,0,13.499,0
		s-0.002,0.001-0.003,0.001s-0.002-0.001-0.003,0c-0.002,0-0.003,0.002-0.005,0.003c-0.003,0.001-0.006,0.002-0.008,0.004
		c-0.001,0.001-0.003,0.002-0.004,0.004c-0.002,0.002-0.002,0.005-0.004,0.007c-0.001,0.002-0.003,0.003-0.003,0.006l-2.253,11.194
		L0.023,13.471c-0.001,0-0.003,0.002-0.004,0.004c-0.003,0.001-0.006,0.001-0.008,0.003c-0.002,0.001-0.003,0.003-0.004,0.004
		c-0.002,0.003-0.003,0.005-0.004,0.008C0.002,13.492,0,13.493,0,13.495c0,0.001,0,0.002,0,0.003s0,0,0,0.002
		c0,0.001,0.001,0.001,0.001,0.003c0,0.001,0,0.002,0,0.003c0,0.002,0.002,0.004,0.003,0.006c0.001,0.002,0.002,0.004,0.004,0.007
		c0.001,0.001,0.002,0.002,0.003,0.003c0.002,0.002,0.006,0.003,0.009,0.004c0.001,0.001,0.003,0.003,0.004,0.004l11.304,2.272
		l2.144,11.174c0.001,0.002,0.003,0.004,0.004,0.006s0.001,0.004,0.003,0.007c0.001,0.001,0.002,0.002,0.003,0.004
		c0.003,0.002,0.006,0.003,0.009,0.004C13.493,26.998,13.494,27,13.496,27c0,0,0.002,0,0.004,0s0.004,0,0.006-0.001
		c0.002,0,0.003-0.002,0.004-0.003c0.004-0.001,0.007-0.002,0.01-0.004c0.001-0.002,0.002-0.003,0.003-0.004
		c0.001-0.002,0.002-0.004,0.004-0.006c0-0.004,0.002-0.004,0.003-0.006l2.252-11.194l11.194-2.253c0.002,0,0.002-0.003,0.004-0.003
		c0.004-0.001,0.008-0.002,0.01-0.005c0.001-0.001,0.002-0.002,0.003-0.003c0.002-0.003,0.003-0.005,0.004-0.007
		c0-0.002,0.003-0.004,0.003-0.006c0-0.001-0.001-0.002,0-0.003c0-0.001,0.001-0.002,0.001-0.003S26.998,13.498,26.998,13.496z
		 M15.546,11.496l11.129,1.975H13.307L15.546,11.496z M13.47,13.399l-1.901-2.189L13.47,0.325V13.399z M13.426,13.208l-2.003,3.135
		L0.281,13.605L13.426,13.208z M13.397,14.723l1.846,2.019l-1.846,10.024V14.723z"/>
</g>
</svg>
