<?xml version="1.0" encoding="utf-8"?>
<!-- Generator: Adobe Illustrator 16.0.0, SVG Export Plug-In . SVG Version: 6.00 Build 0)  -->
<!DOCTYPE svg PUBLIC "-//W3C//DTD SVG 1.1 Tiny//EN" "http://www.w3.org/Graphics/SVG/1.1/DTD/svg11-tiny.dtd">
<svg version="1.1" baseProfile="tiny" id="Layer_1" xmlns="http://www.w3.org/2000/svg" xmlns:xlink="http://www.w3.org/1999/xlink"
	 x="0px" y="0px" width="44px" height="44px" viewBox="0 0 44 44" xml:space="preserve">
<g>
	<path fill="#373636" d="M21.999,0.2C9.979,0.2,0.2,9.979,0.2,22c0,12.021,9.778,21.8,21.799,21.8S43.8,34.022,43.8,22
		C43.8,9.979,34.02,0.2,21.999,0.2z M21.999,41.62C11.183,41.62,2.38,32.819,2.38,22c0-10.819,8.803-19.62,19.619-19.62
		C32.817,2.38,41.62,11.181,41.62,22C41.62,32.819,32.817,41.62,21.999,41.62z"/>
	<path fill="#373636" d="M29.279,13.292l-10.79,4.624c-0.258,0.111-0.463,0.316-0.575,0.573l-4.625,10.79
		c-0.177,0.409-0.085,0.883,0.231,1.201c0.208,0.209,0.487,0.316,0.771,0.316c0.144,0,0.289-0.029,0.429-0.086l10.793-4.624
		c0.256-0.111,0.461-0.315,0.571-0.573l4.626-10.788c0.178-0.41,0.085-0.886-0.231-1.202C30.163,13.208,29.688,13.12,29.279,13.292z
		 M24.252,24.252l-7.886,3.378l3.38-7.883l7.884-3.378L24.252,24.252z"/>
	<path fill="#373636" d="M11.1,20.91H6.741c-0.603,0-1.09,0.489-1.09,1.09c0,0.602,0.487,1.089,1.09,1.089H11.1
		c0.603,0,1.09-0.488,1.09-1.089C12.189,21.399,11.702,20.91,11.1,20.91z"/>
	<path fill="#373636" d="M21.999,12.19c0.603,0,1.092-0.489,1.092-1.09V6.74c0-0.602-0.489-1.089-1.092-1.089
		c-0.6,0-1.09,0.487-1.09,1.089v4.36C20.909,11.701,21.399,12.19,21.999,12.19z"/>
	<path fill="#373636" d="M31.811,22c0,0.602,0.487,1.089,1.09,1.089h4.36c0.601,0,1.09-0.488,1.09-1.089
		c0-0.601-0.489-1.09-1.09-1.09H32.9C32.298,20.91,31.811,21.399,31.811,22z"/>
	<path fill="#373636" d="M21.999,31.811c-0.6,0-1.09,0.487-1.09,1.09v4.36c0,0.602,0.49,1.09,1.09,1.09
		c0.603,0,1.092-0.489,1.092-1.09V32.9C23.091,32.298,22.602,31.811,21.999,31.811z"/>
</g>
</svg>
