<?xml version="1.0" encoding="utf-8"?>
<!-- Generator: Adobe Illustrator 16.0.0, SVG Export Plug-In . SVG Version: 6.00 Build 0)  -->
<!DOCTYPE svg PUBLIC "-//W3C//DTD SVG 1.1//EN" "http://www.w3.org/Graphics/SVG/1.1/DTD/svg11.dtd">
<svg version="1.1" id="Layer_1" xmlns="http://www.w3.org/2000/svg" xmlns:xlink="http://www.w3.org/1999/xlink" x="0px" y="0px"
	 width="44px" height="43.479px" viewBox="0 0 44 43.479" enable-background="new 0 0 44 43.479" xml:space="preserve">
<g id="Layer_2" display="none">
</g>
<g id="Layer_1_1_">
	<g>
		<path fill="#373636" d="M4.221,17.323C1.893,17.323,0,18.678,0,20.344v20.217c0,1.664,1.893,3.02,4.221,3.02h3.455
			c2.328,0,4.221-1.355,4.221-3.02V20.344c0-1.666-1.893-3.021-4.221-3.021H4.221z M9.48,20.344v20.217
			c0,0.712-0.809,1.291-1.805,1.291H4.221c-0.998,0-1.807-0.579-1.807-1.291V20.344c0-0.712,0.809-1.292,1.807-1.292h3.455
			C8.672,19.051,9.48,19.631,9.48,20.344z"/>
		<path fill="#373636" d="M20.272,22.341c-2.328,0-4.221,1.356-4.221,3.02V40.49c0,1.664,1.893,3.019,4.221,3.019h3.455
			c2.328,0,4.222-1.354,4.222-3.019V25.36c0-1.663-1.894-3.019-4.222-3.019H20.272L20.272,22.341z M25.532,25.36v15.129
			c0,0.712-0.81,1.291-1.806,1.291h-3.455c-0.996,0-1.805-0.578-1.805-1.291V25.36c0-0.71,0.809-1.291,1.805-1.291h3.455
			C24.725,24.07,25.532,24.648,25.532,25.36z"/>
		<path fill="#373636" d="M36.322,12.406c-2.326,0-4.221,1.354-4.221,3.019V40.49c0,1.664,1.895,3.019,4.221,3.019h3.455
			c2.328,0,4.223-1.354,4.223-3.019V15.425c0-1.665-1.895-3.019-4.223-3.019H36.322z M41.584,15.425V40.49
			c0,0.712-0.811,1.291-1.807,1.291h-3.455c-0.994,0-1.805-0.579-1.805-1.291V15.425c0-0.712,0.811-1.29,1.805-1.29h3.455
			C40.773,14.135,41.584,14.713,41.584,15.425z"/>
	</g>
</g>
<path fill="#373636" d="M28.353-0.024c-0.211,0.054-0.401,0.154-0.551,0.292c-4.191,3.725-8.363,7.448-12.55,11.174
	c-0.042-0.012-0.05-0.022-0.095-0.035c-0.453-0.138-1.086-0.349-1.733-0.594L2.97,6.855C2.404,6.623,1.702,6.828,1.402,7.313
	c-0.3,0.485-0.085,1.066,0.481,1.299c0.022,0.01,0.044,0.017,0.067,0.025l10.455,3.958c0.688,0.26,1.337,0.493,1.867,0.655
	c0.265,0.081,0.502,0.146,0.717,0.192c0.108,0.023,0.202,0.039,0.353,0.051c0.076,0.006,0.158,0.012,0.311-0.006
	c0.153-0.016,0.441-0.027,0.768-0.316c4.153-3.697,8.311-7.394,12.468-11.089l10.442,3.852L37.724,6.41
	c-0.626,0.143-1.015,0.679-0.868,1.198c0.146,0.519,0.768,0.823,1.393,0.68c0.055-0.013,0.108-0.029,0.161-0.048l4.328-1.293
	c0.612-0.182,0.951-0.741,0.758-1.247c-0.003-0.005-0.004-0.01-0.006-0.015l-1.408-3.488c-0.184-0.477-0.779-0.741-1.366-0.607
	c-0.623,0.149-1.005,0.688-0.854,1.205c0.008,0.033,0.02,0.065,0.035,0.096l0.513,1.285L29.145,0.022
	C28.899-0.072,28.62-0.088,28.353-0.024z"/>
</svg>
