<?xml version="1.0" encoding="utf-8"?>
<!-- Generator: Adobe Illustrator 16.0.0, SVG Export Plug-In . SVG Version: 6.00 Build 0)  -->
<!DOCTYPE svg PUBLIC "-//W3C//DTD SVG 1.1//EN" "http://www.w3.org/Graphics/SVG/1.1/DTD/svg11.dtd">
<svg version="1.1" id="Layer_1" xmlns="http://www.w3.org/2000/svg" xmlns:xlink="http://www.w3.org/1999/xlink" x="0px" y="0px"
	 width="200px" height="200px" viewBox="0 0 200 200" enable-background="new 0 0 200 200" xml:space="preserve">
<g display="none">
	<g display="inline">
		<path fill="#4D4D4D" d="M6.877,73.457c0.105,0.247,0.227,0.487,0.359,0.72c0.254,0.515,0.567,0.998,0.936,1.438l0.646,0.575
			c0.46,0.398,0.967,0.737,1.51,1.008h0.432l0,0c0.861,0.502,1.815,0.82,2.805,0.935l0,0c0.716,0.108,1.443,0.108,2.159,0
			l21.582-7.193c3.773-1.252,5.819-5.325,4.568-9.101c-1.251-3.774-5.327-5.818-9.1-4.568l-4.316,1.439
			c26.805-39.427,80.496-49.658,119.923-22.854c13.87,9.43,24.693,22.696,31.145,38.176c1.531,3.676,5.75,5.416,9.428,3.885
			c3.673-1.529,5.413-5.749,3.883-9.424C171.518,17.119,112.585-7.244,61.212,14.076c-18.95,7.864-35.047,21.328-46.135,38.59
			l-1.87-5.611c-1.252-3.774-5.326-5.819-9.101-4.567c-3.774,1.252-5.819,5.324-4.568,9.099l7.194,21.582L6.877,73.457z"/>
	</g>
	<g display="inline">
		<path fill="#4D4D4D" d="M200.245,147.77l-7.193-21.582l0,0c-0.212-0.483-0.479-0.941-0.792-1.369
			c-0.311-0.758-0.869-1.391-1.583-1.797c-0.417-0.364-0.876-0.678-1.364-0.937l0,0c-0.336-0.024-0.674-0.024-1.008,0
			c-1.006-0.328-2.089-0.328-3.095,0h-0.935l-21.582,7.195c-3.773,1.251-5.819,5.325-4.567,9.1c1.252,3.775,5.326,5.82,9.101,4.567
			l0,0l4.316-1.438c-26.807,39.427-80.499,49.657-119.924,22.853c-13.87-9.428-24.692-22.693-31.146-38.176
			c-1.529-3.674-5.748-5.414-9.423-3.885c-3.675,1.53-5.414,5.748-3.885,9.426c21.441,51.322,80.429,75.547,131.752,54.105
			c18.909-7.9,34.959-21.38,46.007-38.643l1.869,5.612c1.252,3.774,5.326,5.818,9.1,4.569c3.774-1.253,5.819-5.327,4.568-9.1l0,0
			L200.245,147.77z"/>
	</g>
</g>
<g display="none">
	<g display="inline">
		<path fill="#4C4C4C" d="M100.073,197.276c-53.695,0-97.379-43.686-97.379-97.381c0-53.699,43.684-97.386,97.379-97.386
			c53.695,0,97.38,43.687,97.38,97.386C197.453,153.591,153.769,197.276,100.073,197.276z M100.073,17.681
			c-45.33,0-82.208,36.881-82.208,82.215c0,45.33,36.878,82.21,82.208,82.21s82.209-36.88,82.209-82.21
			C182.282,54.562,145.403,17.681,100.073,17.681z"/>
	</g>
	<g display="inline">
		<g>
			<path fill="#4C4C4C" d="M98.691,144.819c0.517,0.528,1.111,0.814,1.792,0.814c0.875,0,1.863-0.445,2.951-1.322
				c3.136-2.445,6.324-5.965,9.51-10.523l2.865,1.928c-3.741,5.632-8.151,10.46-13.178,14.401
				c-3.694,2.889-7.226,4.298-10.635,4.298c-2.247,0-4.089-0.667-5.51-1.977c-1.458-1.333-2.148-3.014-2.148-5.063
				c0-2.038,0.667-5.412,2.039-10.118l10.733-36.893c1.702-5.997,2.544-9.775,2.544-11.345c0-1.155-0.421-2.125-1.273-2.908
				c-0.852-0.798-1.988-1.194-3.42-1.194c-1.224,0-3.756,0.304-7.561,0.928v-3.163l28.408-4.705l-16.254,57.736
				c-1.087,3.877-1.629,6.213-1.629,6.952C97.925,143.545,98.172,144.275,98.691,144.819z"/>
			<path fill="#4C4C4C" d="M91.996,156.69c-2.823,0-5.195-0.867-7.052-2.578c-1.91-1.747-2.881-4.016-2.881-6.736
				c0-2.321,0.696-5.839,2.129-10.756l10.733-36.89c2.134-7.518,2.453-9.938,2.453-10.709c0-0.524-0.155-0.882-0.536-1.232
				c-0.282-0.264-0.763-0.594-1.881-0.594c-0.643,0-2.43,0.117-7.192,0.898l-2.644,0.434v-7.771l33.844-5.605l-17.224,61.183
				c-1.43,5.096-1.538,6.188-1.544,6.354c0,0.146,0.018,0.438,0.137,0.563c0.086,0.087,0.144,0.111,0.144,0.111
				c0.053-0.002,0.537-0.024,1.523-0.82c2.993-2.333,6.036-5.708,9.073-10.056l1.28-1.833l6.598,4.438l-1.252,1.885
				c-3.877,5.837-8.476,10.861-13.67,14.934C99.977,155.082,95.927,156.69,91.996,156.69z M98.054,83.227
				c0.699,0.297,1.329,0.706,1.884,1.226c1.296,1.192,1.992,2.776,1.992,4.568c0,1.159-0.272,3.661-2.63,11.967l-10.737,36.906
				c-1.61,5.523-1.948,8.206-1.948,9.482c0,1.429,0.448,2.505,1.408,3.384c1.01,0.93,2.308,1.38,3.974,1.38
				c2.89,0,5.997-1.284,9.232-3.815c0.278-0.218,0.555-0.438,0.829-0.663c-1.849,0.572-3.646,0.127-4.994-1.252
				c-0.932-0.977-1.414-2.264-1.414-3.741c0-0.72,0.204-2.182,1.714-7.567l15.284-54.291L98.054,83.227z"/>
		</g>
		<g>
			<path fill="#4C4C4C" d="M106.803,63.835c-1.858,1.886-4.071,2.842-6.671,2.842s-4.858-0.957-6.743-2.842
				c-1.899-1.884-2.828-4.136-2.828-6.728c0-2.585,0.914-4.828,2.772-6.685c1.841-1.844,4.113-2.764,6.799-2.764
				c2.684,0,4.927,0.92,6.742,2.764c1.813,1.856,2.713,4.085,2.713,6.685C109.586,59.7,108.658,61.951,106.803,63.835z"/>
			<path fill="#4C4C4C" d="M100.131,66.868c-2.641,0-4.955-0.975-6.876-2.898c-1.914-1.898-2.884-4.207-2.884-6.862
				c0-2.65,0.951-4.944,2.827-6.818c1.869-1.871,4.202-2.82,6.933-2.82c2.72,0,5.035,0.95,6.876,2.821
				c1.837,1.881,2.768,4.175,2.768,6.817c0,2.641-0.954,4.949-2.838,6.861C105.042,65.892,102.753,66.868,100.131,66.868z
				 M100.131,47.849c-2.627,0-4.869,0.912-6.665,2.709c-1.802,1.801-2.716,4.005-2.716,6.55c0,2.55,0.933,4.768,2.771,6.593
				c1.849,1.85,4.072,2.787,6.609,2.787c2.515,0,4.714-0.938,6.537-2.786c1.81-1.838,2.729-4.057,2.729-6.595
				c0-2.54-0.895-4.744-2.658-6.552C104.97,48.76,102.747,47.849,100.131,47.849z"/>
		</g>
	</g>
</g>
<g display="none">
	<g display="inline">
		<g>
			<path fill="#4C4C4C" d="M134.268,140.789c-1.721,1.72-3.211,3.616-4.488,5.613l-56.715-34.419
				c1.478-3.766,2.352-7.85,2.352-12.122c0-4.297-0.874-8.381-2.352-12.147l56.743-34.14c5.813,9.138,16.014,15.243,27.668,15.243
				c18.088,0,32.813-14.726,32.813-32.813S175.563,3.166,157.475,3.166c-18.1,0-32.84,14.737-32.84,32.838
				c0,4.095,0.811,8.064,2.176,11.68L70.005,81.913c-5.864-8.937-15.963-14.865-27.454-14.865
				c-18.113,0-32.838,14.713-32.838,32.838c0,18.101,14.726,32.814,32.838,32.814c11.49,0,21.59-5.915,27.454-14.865l56.778,34.482
				c-1.414,3.691-2.148,7.66-2.148,11.729c0,8.746,3.414,17.014,9.607,23.208c6.396,6.368,14.801,9.58,23.207,9.58
				s16.785-3.212,23.205-9.58c6.193-6.219,9.607-14.462,9.607-23.208c0-8.771-3.414-17.011-9.607-23.233
				C167.877,127.974,147.084,127.974,134.268,140.789L134.268,140.789z M157.475,9.738c14.486,0,26.252,11.78,26.252,26.266
				c0,14.46-11.766,26.241-26.252,26.241s-26.254-11.793-26.254-26.241C131.221,21.519,142.988,9.738,157.475,9.738L157.475,9.738z
				 M42.577,126.103c-14.46,0-26.228-11.782-26.228-26.241c0-14.485,11.768-26.266,26.228-26.266
				c14.511,0,26.254,11.78,26.254,26.266C68.831,114.32,57.087,126.103,42.577,126.103L42.577,126.103z M176.055,182.604
				c-10.25,10.236-26.924,10.236-37.137,0c-4.955-5.006-7.686-11.604-7.686-18.582c0-7.028,2.73-13.626,7.686-18.557
				c5.107-5.13,11.844-7.722,18.557-7.722c6.725,0,13.447,2.58,18.58,7.722c4.955,4.931,7.686,11.528,7.686,18.557
				C183.727,170.999,180.998,177.598,176.055,182.604L176.055,182.604z"/>
		</g>
		<g>
			<path fill="#4C4C4C" d="M157.449,199.986c-9.602,0-18.633-3.728-25.432-10.498c-6.795-6.796-10.535-15.83-10.535-25.441
				c0-3.55,0.504-7.02,1.502-10.35l-52.122-31.652c-6.8,8.697-17.174,13.807-28.312,13.807c-19.845,0-35.99-16.134-35.99-35.966
				c0-19.845,16.145-35.99,35.99-35.99c11.133,0,21.51,5.113,28.317,13.817l52.146-31.421c-1.018-3.385-1.531-6.834-1.531-10.288
				c0-19.845,16.146-35.99,35.992-35.99c19.83,0,35.965,16.146,35.965,35.99c0,19.832-16.135,35.966-35.965,35.966
				c-11.309,0-21.777-5.246-28.568-14.176L76.891,89.09c1.114,3.543,1.677,7.155,1.677,10.771c0,3.605-0.564,7.213-1.68,10.756
				l52.001,31.558c0.982-1.292,2.035-2.501,3.15-3.615c6.791-6.791,15.82-10.532,25.424-10.532c9.619,0,18.648,3.752,25.426,10.563
				c6.787,6.818,10.525,15.858,10.525,25.456c0,9.584-3.738,18.616-10.525,25.432C176.053,196.26,167.021,199.986,157.449,199.986z
				 M69.038,113.56l61.63,37.43l-0.941,2.456c-1.287,3.357-1.939,6.925-1.939,10.602c0,7.928,3.084,15.378,8.684,20.979
				c5.605,5.58,13.057,8.656,20.979,8.656c7.898,0,15.352-3.077,20.986-8.666c5.588-5.612,8.674-13.063,8.674-20.97
				c0-7.919-3.086-15.381-8.688-21.009c-5.588-5.614-13.031-8.706-20.959-8.706c-7.92,0-15.365,3.085-20.967,8.686
				c-1.492,1.493-2.859,3.202-4.061,5.082l-1.658,2.596L69.16,113.301l0.969-2.47c1.416-3.606,2.134-7.297,2.134-10.97
				c0-3.689-0.718-7.389-2.134-10.996l-0.973-2.479l61.658-37.098l1.65,2.594c5.492,8.631,14.84,13.784,25.01,13.784
				c16.355,0,29.66-13.307,29.66-29.662c0-16.369-13.305-29.686-29.66-29.686c-16.369,0-29.688,13.316-29.688,29.686
				c0,3.547,0.664,7.102,1.973,10.565l0.928,2.458L69.034,86.179l-1.665-2.536C61.846,75.225,52.568,70.2,42.551,70.2
				c-16.369,0-29.686,13.316-29.686,29.686c0,16.355,13.317,29.662,29.686,29.662c10.026,0,19.303-5.024,24.817-13.44L69.038,113.56
				z M157.473,193.434c-7.869,0-15.25-3.056-20.785-8.604c-5.553-5.61-8.605-12.997-8.605-20.809c0-7.88,3.059-15.264,8.613-20.79
				c5.541-5.568,12.924-8.64,20.779-8.64c7.854,0,15.244,3.07,20.811,8.646c5.547,5.519,8.607,12.902,8.607,20.783
				c-0.016,7.814-3.066,15.198-8.594,20.797C172.729,190.379,165.34,193.434,157.473,193.434z M157.475,140.896
				c-6.164,0-11.961,2.412-16.322,6.794c-4.367,4.346-6.768,10.143-6.768,16.332c0,6.14,2.406,11.951,6.773,16.365
				c4.336,4.345,10.133,6.742,16.314,6.742c6.184,0,11.992-2.399,16.355-6.756c4.342-4.398,6.748-10.213,6.76-16.357
				c0-6.185-2.4-11.98-6.756-16.315C169.449,143.31,163.643,140.896,157.475,140.896z M42.577,129.255
				c-16.2,0-29.38-13.186-29.38-29.394c0-16.221,13.18-29.418,29.38-29.418c16.214,0,29.406,13.197,29.406,29.418
				C71.982,116.069,58.791,129.255,42.577,129.255z M42.577,76.748c-12.724,0-23.076,10.368-23.076,23.113
				c0,12.731,10.352,23.089,23.076,23.089c12.738,0,23.102-10.357,23.102-23.089C65.679,87.116,55.315,76.748,42.577,76.748z
				 M157.475,65.397c-16.215,0-29.406-13.186-29.406-29.394c0-16.221,13.191-29.418,29.406-29.418s29.404,13.197,29.404,29.418
				C186.879,52.212,173.689,65.397,157.475,65.397z M157.475,12.891c-12.738,0-23.102,10.369-23.102,23.113
				c0,12.731,10.363,23.089,23.102,23.089s23.102-10.357,23.102-23.089C180.576,23.26,170.213,12.891,157.475,12.891z"/>
		</g>
	</g>
</g>
<g display="none">
	<g display="inline">
		<g>
			<path fill="#4C4C4C" d="M84.191,100.833c-3.926-0.018-7.845-1.525-10.828-4.523c-5.938-6.005-5.889-15.719,0.098-21.666
				c1.26-1.246,3.28-1.238,4.526,0.02c1.245,1.256,1.236,3.28-0.015,4.525c-3.499,3.459-3.522,9.121-0.063,12.615
				c3.47,3.493,9.137,3.517,12.633,0.054c1.691-1.677,2.627-3.91,2.638-6.299c0.009-2.379-0.907-4.624-2.585-6.312
				c-1.247-1.261-1.238-3.28,0.015-4.525c1.252-1.244,3.279-1.242,4.53,0.02c2.88,2.903,4.456,6.76,4.445,10.854
				c-0.017,4.093-1.634,7.932-4.539,10.816C92.049,99.376,88.125,100.85,84.191,100.833z"/>
		</g>
		<g>
			<path fill="#4C4C4C" d="M84.26,104.167h-0.083c-4.986-0.021-9.666-1.977-13.177-5.507c-7.229-7.31-7.176-19.142,0.112-26.382
				c1.238-1.226,2.873-1.897,4.604-1.897c1.754,0,3.402,0.687,4.639,1.936c2.532,2.555,2.518,6.697-0.03,9.234
				c-1.065,1.054-1.652,2.453-1.659,3.948c-0.008,1.495,0.565,2.901,1.612,3.959c1.054,1.062,2.467,1.647,3.977,1.647
				c1.489,0,2.889-0.574,3.941-1.616c1.057-1.049,1.644-2.45,1.65-3.946c0.005-1.49-0.568-2.892-1.615-3.944
				c-2.536-2.565-2.521-6.707,0.026-9.241c1.235-1.225,2.87-1.899,4.606-1.899c1.756,0,3.405,0.688,4.642,1.936
				c3.503,3.53,5.425,8.222,5.413,13.21c-0.021,4.98-1.981,9.657-5.523,13.173C93.879,102.255,89.216,104.167,84.26,104.167z
				 M84.21,97.772l0.049,3.061v-3.061C84.237,97.771,84.225,97.772,84.21,97.772z"/>
		</g>
	</g>
	<g display="inline">
		<g>
			<path fill="#4C4C4C" d="M134.788,187.939c-3.872,3.841-8.946,5.749-14.017,5.728c-5.065-0.023-10.124-1.972-13.967-5.849
				L49.242,129.76c-4.631-4.677-8.011-13.49-7.688-20.065l2.472-42.891c0.78-11.262,10.586-20.979,21.849-21.665l6.751-0.412
				c-1.612-7.051-4.36-13.846-9.003-18.522c-1.943-1.959-3.933-3.644-5.947-5.068c-0.458-0.323-3.068-1.956-3.542-2.212
				c-0.206-0.107-1.917-0.979-2.573-1.258c-0.023-0.008-0.047-0.015-0.066-0.03c-9.78-4.129-19.766-1.953-28.198,6.413
				c-5.668,5.612-8.646,12.126-8.606,18.829c0.037,7.236,3.648,14.671,10.422,21.514c1.323,1.325,1.309,3.469-0.02,4.783
				c-0.661,0.654-1.527,0.984-2.392,0.98c-0.872-0.004-1.728-0.338-2.39-1.001C12.26,61.03,7.98,51.955,7.923,42.922
				c-0.044-8.566,3.619-16.75,10.612-23.676C28.248,9.607,40,6.62,51.475,10.407c0.038,0.009,0.071,0.012,0.11,0.028
				c0.744,0.248,4.109,1.67,4.773,2.01c0.298,0.147,2.007,1.092,2.581,1.431c0.297,0.182,3.323,2.206,3.335,2.219
				c2.1,1.542,4.156,3.326,6.166,5.348c5.891,5.94,9.197,14.38,11.021,22.866l4.11-0.242l26.899,0.069c0.01,0.001,0.018,0,0.037,0
				c6.526,0.028,15.233,3.678,19.825,8.312l56.027,56.509c3.71,3.734,5.739,8.718,5.717,14.011
				c-0.022,5.295-2.094,10.257-5.836,13.968L134.788,187.939z M181.556,113.716l-56.03-56.51c-3.317-3.339-10.349-6.285-15.06-6.306
				c-0.007,0-0.016,0.001-0.019,0l-26.79-0.069l-3.039,0.187c1.711,12.932,0.529,24.412,0.435,25.265
				c-0.185,1.733-1.66,3.02-3.373,3.013c-0.124-0.001-0.238-0.002-0.355-0.018c-1.856-0.207-3.195-1.876-2.996-3.731
				c0.024-0.199,1.198-11.661-0.498-24.113l-7.542,0.456c-7.862,0.479-14.966,7.527-15.508,15.382l-2.466,42.753
				c-0.227,4.66,2.452,11.662,5.736,14.967l57.565,58.062c2.429,2.451,5.708,3.818,9.192,3.835c3.492,0.014,6.766-1.319,9.233-3.756
				l51.449-51.004c2.451-2.438,3.813-5.705,3.828-9.191C185.327,119.441,183.994,116.168,181.556,113.716z"/>
		</g>
		<g>
			<path fill="#4C4C4C" d="M120.857,197h-0.1c-6.185-0.026-11.98-2.455-16.321-6.835l-57.563-58.059
				c-5.301-5.352-9.019-15.058-8.65-22.575l2.474-42.919c0.894-12.909,12.096-24.018,24.975-24.802l2.695-0.164
				c-1.71-5.661-4.094-10.055-7.11-13.093c-1.766-1.781-3.619-3.36-5.507-4.695c-0.396-0.277-2.793-1.776-3.204-2.002
				c-0.243-0.127-1.635-0.83-2.196-1.082l-0.434-0.148l-0.099-0.076c-2.656-1.07-5.333-1.612-7.962-1.612
				c-5.755,0-11.209,2.517-16.209,7.479c-5.021,4.97-7.656,10.654-7.622,16.442c0.032,6.336,3.303,12.97,9.458,19.188
				c1.259,1.262,1.955,2.951,1.948,4.748c-0.006,1.799-0.714,3.486-1.994,4.751c-1.263,1.252-2.941,1.944-4.722,1.944
				c-1.815-0.008-3.496-0.71-4.764-1.979C9.27,62.749,4.652,52.874,4.589,42.943c-0.048-9.491,3.963-18.503,11.6-26.065
				C23.7,9.424,32.562,5.482,41.814,5.482c3.514,0,7.062,0.574,10.545,1.706c0.09,0.023,0.21,0.058,0.348,0.107
				c0.977,0.34,4.354,1.765,5.171,2.183c0.37,0.182,2.174,1.183,2.756,1.526c0.065,0.04,2.603,1.675,3.606,2.413l0.007-0.01
				c2.228,1.636,4.433,3.548,6.557,5.684c5.127,5.172,8.909,12.47,11.261,21.724l1.412-0.083l27.062,0.07
				c7.459,0.054,16.954,4.044,22.16,9.298l56.027,56.51c4.335,4.36,6.709,10.175,6.684,16.369
				c-0.027,6.191-2.45,11.988-6.823,16.321l-51.453,51.007C132.784,194.623,127.003,197,120.857,197z M53.262,14.774
				c0.945,0.438,2.406,1.189,2.421,1.198c0.653,0.352,3.379,2.062,3.916,2.44c2.206,1.56,4.354,3.391,6.391,5.443
				c4.555,4.588,7.881,11.36,9.886,20.127l0.876,3.832l-10.674,0.65c-9.657,0.588-18.058,8.918-18.726,18.568l-2.47,42.854
				c-0.275,5.625,2.742,13.501,6.729,17.526l57.562,58.057c3.088,3.115,7.213,4.842,11.616,4.861h0.069
				c4.375,0,8.488-1.688,11.583-4.758l51.453-51.009c3.108-3.08,4.83-7.204,4.85-11.614c0.018-4.409-1.669-8.546-4.748-11.645
				l-56.03-56.512c-3.979-4.016-11.815-7.301-17.471-7.325h-0.032L83.665,47.4l-6.862,0.404l-0.601-2.796
				c-2.003-9.321-5.41-16.46-10.129-21.219c-1.865-1.875-3.793-3.551-5.729-4.977c-0.416-0.281-2.871-1.921-3.159-2.103
				c-0.469-0.276-2.043-1.145-2.307-1.277c-0.569-0.29-3.469-1.515-4.246-1.799l-0.203-0.062c-2.86-0.944-5.759-1.423-8.616-1.423
				c-7.455,0-14.693,3.272-20.931,9.463c-6.338,6.275-9.666,13.638-9.626,21.292c0.051,8.147,4,16.414,11.42,23.901l0.085-0.036
				c-7.427-7.518-11.364-15.762-11.406-23.875c-0.044-7.62,3.273-14.958,9.595-21.216c6.203-6.155,13.432-9.409,20.904-9.409
				c3.65,0,7.331,0.771,10.936,2.293L53.262,14.774z M120.866,190.22C120.866,190.22,120.866,190.22,120.866,190.22
				c-4.453-0.019-8.555-1.732-11.617-4.821l-57.564-58.061c-3.967-3.993-6.972-11.834-6.699-17.477l2.468-42.783
				c0.666-9.641,9.023-17.931,18.633-18.518l10.631-0.643l0.417,3.064c1.782,13.08,0.519,24.848,0.505,24.961
				c0-0.007,0.016,0.009,0.039,0.018h0.016c0.098-0.518,1.305-11.772-0.381-24.506l-0.47-3.546l6.715-0.412l27.257,0.076
				c5.623,0.156,13.188,3.372,17.074,7.283l56.032,56.512c3.059,3.075,4.74,7.187,4.731,11.575c-0.02,4.383-1.729,8.48-4.81,11.548
				l-51.455,51.007C129.307,188.545,125.216,190.22,120.866,190.22z M70.891,54.95l-4.399,0.266
				c-6.169,0.377-11.958,6.117-12.384,12.284l-2.463,42.715c-0.18,3.721,2.139,9.775,4.772,12.426l57.567,58.064
				c1.81,1.824,4.239,2.836,6.841,2.847h0.001c2.625,0,5.052-0.992,6.874-2.793l51.446-50.999c1.819-1.81,2.829-4.24,2.842-6.839
				c0.005-2.6-0.988-5.036-2.796-6.854l-56.033-56.514c-2.698-2.716-8.875-5.302-12.707-5.318l-26.118-0.067
				c1.161,12.001,0.085,22.021,0.035,22.48c-0.363,3.404-3.232,5.98-6.672,5.98c-0.191,0-0.472-0.001-0.806-0.045
				c-3.604-0.402-6.269-3.723-5.874-7.394C71.028,75.074,71.975,65.712,70.891,54.95z"/>
		</g>
	</g>
</g>
<g id="Layer_1_2_">
	<g>
		<g>
			<g>
				<path fill="#4C4C4C" d="M94.684,142.982c0.356,0.355,0.749,0.684,1.143,0.95c0.204,0.114,0.394,0.217,0.584,0.292
					c0.241,0.152,0.456,0.292,0.709,0.406c0.254,0.127,0.507,0.152,0.762,0.241c0.229,0.063,0.433,0.152,0.66,0.178
					c0.481,0.114,0.964,0.164,1.472,0.164c0.494,0,0.988-0.05,1.471-0.164c0.229-0.039,0.443-0.139,0.66-0.178
					c0.253-0.089,0.508-0.14,0.761-0.241c0.266-0.126,0.509-0.268,0.735-0.406c0.203-0.101,0.381-0.178,0.56-0.292
					c0.43-0.267,0.812-0.595,1.154-0.95l45.201-45.19c2.943-2.937,2.943-7.72,0-10.669c-2.969-2.93-7.714-2.93-10.644,0
					l-32.35,32.376V9.622c0-4.156-3.389-7.536-7.549-7.536c-4.163,0-7.538,3.362-7.538,7.536v109.877L60.151,87.123
					c-2.942-2.93-7.712-2.93-10.644,0c-2.955,2.95-2.955,7.733,0,10.669L94.684,142.982z"/>
				<path fill="#4C4C4C" d="M100.014,145.291c-0.532,0-1.019-0.054-1.491-0.166c-0.152-0.016-0.302-0.065-0.448-0.112
					c-0.07-0.022-0.14-0.046-0.213-0.065c-0.1-0.034-0.198-0.06-0.293-0.085c-0.157-0.039-0.32-0.079-0.483-0.162
					c-0.238-0.108-0.448-0.24-0.669-0.381l-0.047-0.029c-0.188-0.073-0.391-0.184-0.58-0.29c-0.394-0.265-0.792-0.597-1.16-0.964
					L49.453,97.847c-1.441-1.433-2.236-3.341-2.239-5.375c-0.002-2.041,0.792-3.96,2.239-5.404c1.433-1.431,3.341-2.22,5.373-2.22
					c2.032,0,3.943,0.789,5.38,2.22l32.193,32.245V9.622c0-4.198,3.416-7.614,7.615-7.614c4.205,0,7.626,3.416,7.626,7.614v109.69
					l32.218-32.245c1.432-1.431,3.335-2.22,5.361-2.22s3.94,0.789,5.391,2.22c1.439,1.441,2.231,3.358,2.231,5.396
					c0,2.037-0.792,3.949-2.231,5.384l-45.2,45.189c-0.384,0.398-0.767,0.713-1.167,0.962c-0.137,0.088-0.271,0.153-0.414,0.221
					c-0.049,0.025-0.101,0.049-0.152,0.075c-0.188,0.116-0.446,0.269-0.737,0.408c-0.151,0.06-0.301,0.103-0.445,0.143
					c-0.107,0.033-0.216,0.063-0.323,0.101c-0.111,0.021-0.211,0.053-0.316,0.087c-0.115,0.035-0.232,0.073-0.355,0.095
					C101.037,145.235,100.536,145.291,100.014,145.291z M54.826,85.003c-1.991,0-3.86,0.772-5.264,2.174
					c-1.416,1.415-2.195,3.294-2.192,5.293c0.002,1.993,0.781,3.863,2.192,5.266l45.177,45.189c0.361,0.359,0.752,0.687,1.132,0.943
					c0.179,0.101,0.376,0.207,0.569,0.284l0.059,0.034c0.217,0.138,0.421,0.267,0.653,0.373c0.152,0.076,0.3,0.112,0.456,0.153
					c0.098,0.022,0.199,0.05,0.301,0.085c0.07,0.02,0.143,0.042,0.215,0.065c0.145,0.049,0.282,0.091,0.428,0.108
					c0.468,0.112,0.944,0.164,1.463,0.164c0.51,0,0.999-0.054,1.453-0.162c0.118-0.02,0.23-0.057,0.339-0.091
					c0.105-0.033,0.215-0.067,0.325-0.087c0.099-0.037,0.209-0.067,0.319-0.101c0.141-0.039,0.285-0.081,0.427-0.138
					c0.279-0.133,0.534-0.284,0.724-0.399c0.059-0.031,0.11-0.055,0.16-0.079c0.14-0.068,0.27-0.13,0.398-0.213
					c0.391-0.243,0.764-0.549,1.139-0.939l45.203-45.191c1.408-1.406,2.185-3.278,2.185-5.274c0-1.996-0.776-3.873-2.185-5.285
					c-1.421-1.402-3.296-2.174-5.282-2.174c-1.984,0-3.85,0.772-5.253,2.174l-32.481,32.509V9.622c0-4.112-3.352-7.458-7.471-7.458
					c-4.113,0-7.46,3.346-7.46,7.458v110.064l-0.132-0.133L60.097,87.178C58.688,85.775,56.816,85.003,54.826,85.003z"/>
			</g>
			<g>
				<path fill="#4C4C4C" d="M175.346,137.654c-4.162,0-7.537,3.399-7.537,7.534v37.654H32.229v-37.654
					c0-4.135-3.388-7.534-7.548-7.534c-4.162,0-7.538,3.399-7.538,7.534v45.191c0,4.134,3.376,7.535,7.538,7.535h150.638
					c4.162,0,7.537-3.401,7.537-7.535v-45.191C182.881,141.054,179.495,137.654,175.346,137.654z"/>
				<path fill="#4C4C4C" d="M175.319,197.992H24.681c-4.199,0-7.615-3.415-7.615-7.612v-45.191c0-4.197,3.416-7.612,7.615-7.612
					c4.205,0,7.625,3.415,7.625,7.612v37.577h135.425v-37.577c0-4.197,3.416-7.612,7.614-7.612c2.03,0,3.942,0.799,5.382,2.246
					c1.436,1.443,2.219,3.349,2.206,5.366v45.191C182.934,194.577,179.518,197.992,175.319,197.992z M24.681,137.731
					c-4.114,0-7.46,3.345-7.46,7.457v45.191c0,4.11,3.347,7.458,7.46,7.458h150.638c4.112,0,7.46-3.348,7.46-7.458v-45.191
					c0.012-1.977-0.756-3.844-2.162-5.256c-1.41-1.419-3.283-2.201-5.271-2.201c-4.112,0-7.46,3.345-7.46,7.457v37.731H32.152
					v-37.731C32.152,141.076,28.8,137.731,24.681,137.731z"/>
			</g>
		</g>
	</g>
</g>
</svg>
