<?xml version="1.0" encoding="utf-8"?>
<!-- Generator: Adobe Illustrator 16.0.0, SVG Export Plug-In . SVG Version: 6.00 Build 0)  -->
<!DOCTYPE svg PUBLIC "-//W3C//DTD SVG 1.1//EN" "http://www.w3.org/Graphics/SVG/1.1/DTD/svg11.dtd">
<svg version="1.1" id="Capa_1" xmlns="http://www.w3.org/2000/svg" xmlns:xlink="http://www.w3.org/1999/xlink" x="0px" y="0px"
	 width="32.071px" height="58.361px" viewBox="55.873 20.159 32.071 58.361" enable-background="new 55.873 20.159 32.071 58.361"
	 xml:space="preserve">
<g>
	<path fill="#636363" d="M85.826,21.524l-7.195-0.012c-8.086,0-13.311,5.36-13.311,13.656v6.296h-7.234
		c-0.627,0-1.133,0.506-1.133,1.132v9.122c0,0.627,0.508,1.133,1.133,1.133h7.234v23.02c0,0.625,0.506,1.131,1.131,1.131h9.441
		c0.625,0,1.131-0.508,1.131-1.131v-23.02h8.459c0.627,0,1.133-0.506,1.133-1.133l0.004-9.122c0-0.3-0.121-0.588-0.332-0.8
		c-0.213-0.213-0.5-0.332-0.801-0.332h-8.463v-5.338c0-2.565,0.611-3.867,3.953-3.867l4.848-0.002c0.625,0,1.131-0.507,1.131-1.131
		v-8.471C86.955,22.031,86.449,21.525,85.826,21.524z"/>
</g>
</svg>
