<?xml version="1.0" encoding="utf-8"?>
<!-- Generator: Adobe Illustrator 16.0.0, SVG Export Plug-In . SVG Version: 6.00 Build 0)  -->
<!DOCTYPE svg PUBLIC "-//W3C//DTD SVG 1.1//EN" "http://www.w3.org/Graphics/SVG/1.1/DTD/svg11.dtd">
<svg version="1.1" id="Layer_1" xmlns="http://www.w3.org/2000/svg" xmlns:xlink="http://www.w3.org/1999/xlink" x="0px" y="0px"
	 width="50px" height="50px" viewBox="0 0 50 50" enable-background="new 0 0 50 50" xml:space="preserve">
<path fill="#2D2D2D" stroke="#2D2D2D" stroke-width="2" stroke-miterlimit="10" d="M22.439,24.893c-1.002,0-2.004-0.381-2.769-1.143
	c-1.522-1.526-1.521-4.006,0.001-5.53c0.32-0.319,0.836-0.319,1.155,0s0.319,0.836,0.001,1.155c-0.889,0.887-0.889,2.332-0.002,3.22
	c0.89,0.888,2.336,0.888,3.225,0c0.43-0.43,0.666-1.001,0.666-1.61c0-0.607-0.236-1.18-0.667-1.608
	c-0.319-0.32-0.319-0.836-0.001-1.155c0.318-0.318,0.836-0.32,1.156,0c0.738,0.738,1.145,1.721,1.146,2.766
	c0,1.045-0.408,2.026-1.146,2.766C24.443,24.512,23.443,24.893,22.439,24.893z"/>
<path fill="#2D2D2D" stroke="#2D2D2D" stroke-width="2" stroke-miterlimit="10" d="M35.449,47.07
	c-0.984,0.984-2.277,1.477-3.571,1.477c-1.293,0-2.586-0.491-3.571-1.477L13.551,32.314c-1.188-1.188-2.06-3.435-1.984-5.113
	l0.584-10.95c0.187-2.875,2.679-5.366,5.553-5.554l1.723-0.112c-0.419-1.798-1.128-3.529-2.318-4.718
	C16.609,5.369,16.1,4.941,15.584,4.58c-0.117-0.082-0.785-0.496-0.906-0.561c-0.053-0.027-0.49-0.248-0.658-0.318
	c-0.006-0.002-0.012-0.004-0.017-0.008c-2.501-1.043-5.048-0.477-7.19,1.668C5.372,6.8,4.619,8.466,4.637,10.177
	c0.018,1.847,0.947,3.74,2.684,5.479c0.339,0.336,0.338,0.884,0,1.221c-0.168,0.168-0.389,0.253-0.609,0.253
	c-0.223,0-0.441-0.084-0.611-0.253c-2.063-2.064-3.166-4.376-3.19-6.682C2.889,8.009,3.814,5.916,5.592,4.141
	c2.469-2.471,5.465-3.246,8.397-2.292c0.01,0.003,0.019,0.003,0.028,0.007c0.19,0.063,1.051,0.422,1.221,0.508
	c0.076,0.037,0.514,0.276,0.66,0.363c0.076,0.045,0.851,0.559,0.854,0.562c0.538,0.392,1.064,0.845,1.58,1.358
	c1.51,1.51,2.363,3.66,2.838,5.824l1.049-0.066l6.865-0.012c0.003,0,0.005,0,0.01,0c1.666,0,3.893,0.922,5.069,2.1l14.362,14.361
	C49.477,27.803,50,29.072,50,30.424s-0.523,2.62-1.475,3.571L35.449,47.07z M47.305,28.074L32.941,13.712
	c-0.851-0.849-2.648-1.593-3.851-1.593c-0.002,0-0.004,0-0.005,0l-6.838,0.012l-0.775,0.051c0.451,3.299,0.162,6.23,0.139,6.448
	c-0.045,0.442-0.42,0.772-0.857,0.772c-0.031,0-0.061,0-0.091-0.004c-0.474-0.051-0.817-0.476-0.769-0.949
	c0.006-0.051,0.293-2.978-0.153-6.154l-1.925,0.125c-2.006,0.131-3.812,1.938-3.941,3.943l-0.582,10.914
	c-0.053,1.19,0.639,2.975,1.48,3.814l14.756,14.756c0.623,0.623,1.461,0.969,2.351,0.969c0.892,0,1.726-0.344,2.353-0.969
	l13.076-13.074c0.623-0.625,0.967-1.461,0.967-2.351C48.273,29.531,47.93,28.697,47.305,28.074z"/>
<path stroke="#FFFFFF" stroke-width="2" stroke-miterlimit="10" d="M47.455,0.758L-0.743,45.026
	c0.048,0.246,0.071,0.494,0.104,0.742c1.163,1.316,2.274,2.662,3.308,4.067L51.213,5.25C49.877,3.853,48.648,2.366,47.455,0.758z"/>
</svg>
