<?xml version="1.0" encoding="utf-8"?>
<!-- Generator: Adobe Illustrator 16.0.0, SVG Export Plug-In . SVG Version: 6.00 Build 0)  -->
<!DOCTYPE svg PUBLIC "-//W3C//DTD SVG 1.1 Tiny//EN" "http://www.w3.org/Graphics/SVG/1.1/DTD/svg11-tiny.dtd">
<svg version="1.1" baseProfile="tiny" id="Layer_1" xmlns="http://www.w3.org/2000/svg" xmlns:xlink="http://www.w3.org/1999/xlink"
	 x="0px" y="0px" width="44px" height="44px" viewBox="0 0 44 44" xml:space="preserve">
<g>
	<path fill="#373636" d="M22.082,0.334c-11.947,0-21.666,9.72-21.666,21.665c0,4.138,1.169,8.149,3.387,11.628l-3.51,9.219
		c-0.087,0.229-0.028,0.488,0.15,0.654c0.114,0.109,0.263,0.166,0.414,0.166c0.083,0,0.168-0.017,0.247-0.054l8.589-3.841
		c3.648,2.549,7.923,3.895,12.389,3.895c11.946,0,21.664-9.718,21.664-21.666C43.746,10.054,34.028,0.334,22.082,0.334z
		 M22.082,40.47c-3.905,0-7.642-1.208-10.802-3.495c-0.445-0.319-0.971-0.491-1.519-0.491c-0.367,0-0.725,0.076-1.059,0.227
		l-3.197,1.432L6.9,34.477c0.297-0.775,0.201-1.651-0.257-2.346C4.663,29.118,3.612,25.616,3.612,22
		c0-4.924,1.925-9.561,5.416-13.054c3.494-3.492,8.131-5.416,13.056-5.416c10.182,0,18.469,8.286,18.469,18.47
		C40.551,32.184,32.266,40.47,22.082,40.47z"/>
	<g>
		<path fill="#373636" d="M19.349,27.229h-7.975V16.205h7.975v2.132h-5.146v1.902h4.774v2.132h-4.774v2.725h5.146V27.229z"/>
		<path fill="#373636" d="M32.136,27.229h-2.74l-4.679-7.566v7.566H22.11V16.205h3.398l4.021,6.315v-6.315h2.606V27.229z"/>
	</g>
</g>
</svg>
