<?xml version="1.0" encoding="utf-8"?>
<!-- Generator: Adobe Illustrator 16.0.0, SVG Export Plug-In . SVG Version: 6.00 Build 0)  -->
<!DOCTYPE svg PUBLIC "-//W3C//DTD SVG 1.1 Tiny//EN" "http://www.w3.org/Graphics/SVG/1.1/DTD/svg11-tiny.dtd">
<svg version="1.1" baseProfile="tiny" id="Layer_1" xmlns="http://www.w3.org/2000/svg" xmlns:xlink="http://www.w3.org/1999/xlink"
	 x="0px" y="0px" width="44px" height="44px" viewBox="0 0 44 44" xml:space="preserve">
<g>
	<path fill="#373636" d="M21.977,43.749c12.001,0,21.773-9.77,21.773-21.772c0-12.002-9.771-21.726-21.773-21.726
		C9.974,0.251,0.25,10.021,0.25,22.024C0.25,34.025,10.02,43.749,21.977,43.749z M2.11,22.024c0-5.537,2.28-10.562,5.958-14.189
		V10.3c0,0.512,0.418,0.931,0.93,0.931c0.51,0,0.93-0.419,0.93-0.931V6.206c0.14-0.14,0.326-0.233,0.466-0.326v5.815
		c0,0.512,0.418,0.931,0.93,0.931c0.512,0,0.93-0.419,0.93-0.931V4.67c0.14-0.093,0.326-0.186,0.466-0.233V10.3
		c0,0.512,0.417,0.931,0.93,0.931c0.512,0,0.93-0.419,0.93-0.931V3.555c0.14-0.048,0.326-0.14,0.466-0.187v2.745
		c0,0.513,0.418,0.931,0.93,0.931c0.512,0,0.93-0.418,0.93-0.931V2.81c0.14-0.047,0.326-0.093,0.466-0.093v8.979
		c0,0.512,0.418,0.931,0.93,0.931c0.512,0,0.932-0.419,0.932-0.931V2.345c0.138,0,0.324-0.047,0.464-0.047v11.723
		c0,0.511,0.418,0.932,0.93,0.932c0.512,0,0.93-0.42,0.93-0.932V2.159c0.14,0,0.28,0,0.42,0c0,0,0,0,0.046,0v8.605
		c0,0.513,0.418,0.931,0.93,0.931c0.512,0,0.93-0.418,0.93-0.931V2.205c0.14,0,0.326,0.045,0.466,0.045v16.889
		c0,0.512,0.418,0.931,0.93,0.931c0.512,0,0.932-0.419,0.932-0.931V2.577c0.138,0.046,0.324,0.094,0.464,0.094v17.864
		c0,0.512,0.42,0.931,0.93,0.931c0.512,0,0.932-0.418,0.932-0.931V3.228c0.14,0.047,0.326,0.094,0.464,0.187v14.793
		c0,0.512,0.42,0.931,0.93,0.931c0.514,0,0.93-0.419,0.93-0.931V4.206c0.14,0.093,0.328,0.139,0.468,0.232V10.3
		c0,0.512,0.418,0.931,0.93,0.931c0.51,0,0.93-0.419,0.93-0.931V5.601c0.138,0.094,0.326,0.232,0.466,0.325v6.234
		c0,0.513,0.418,0.931,0.93,0.931c0.51,0,0.93-0.418,0.93-0.931V7.462c0.14,0.14,0.326,0.278,0.466,0.465v7.955
		c0,0.512,0.418,0.932,0.93,0.932c0.512,0,0.93-0.419,0.93-0.932v-5.86c0.14,0.231,0.326,0.418,0.466,0.651v2.884
		c0,0.512,0.418,0.93,0.93,0.93c0.42,0,0.744-0.279,0.884-0.651c1.116,2.513,1.768,5.257,1.768,8.189
		c0,2.883-0.604,5.582-1.722,8.048v-0.699c0-0.511-0.418-0.93-0.93-0.93c-0.512,0-0.93,0.419-0.93,0.93v4.001
		c-0.14,0.232-0.326,0.419-0.466,0.65v-5.116c0-0.512-0.418-0.931-0.93-0.931c-0.512,0-0.93,0.419-0.93,0.931v7.21
		c-0.14,0.14-0.326,0.279-0.466,0.465V31.7c0-0.512-0.42-0.931-0.93-0.931c-0.512,0-0.93,0.419-0.93,0.931v6.42
		c-0.14,0.093-0.328,0.232-0.466,0.326v-3.955c0-0.512-0.42-0.931-0.93-0.931c-0.512,0-0.93,0.419-0.93,0.931v5.073
		c-0.14,0.091-0.328,0.138-0.468,0.231v-2.978c0-0.512-0.417-0.929-0.93-0.929c-0.51,0-0.93,0.417-0.93,0.929v3.815
		c-0.138,0.047-0.324,0.093-0.464,0.187v-10.98c0-0.512-0.42-0.93-0.932-0.93c-0.51,0-0.93,0.418-0.93,0.93V41.33
		c-0.14,0.046-0.326,0.093-0.464,0.093v-8.328c0-0.511-0.42-0.93-0.932-0.93c-0.512,0-0.93,0.418-0.93,0.93v8.655
		c-0.14,0-0.326,0.046-0.466,0.046V30.769c0-0.511-0.418-0.93-0.93-0.93c-0.512,0-0.93,0.418-0.93,0.93v11.12c0,0,0,0-0.046,0
		c-0.14,0-0.28,0-0.42,0V29.374c0-0.511-0.418-0.93-0.93-0.93c-0.512,0-0.93,0.419-0.93,0.93V41.75c-0.14,0-0.326-0.047-0.464-0.047
		v-8.608c0-0.511-0.42-0.93-0.932-0.93c-0.512,0-0.93,0.418-0.93,0.93v8.281c-0.14-0.046-0.326-0.092-0.466-0.092V29.374
		c0-0.511-0.418-0.93-0.93-0.93c-0.512,0-0.93,0.419-0.93,0.93v11.259c-0.14-0.046-0.326-0.139-0.466-0.186V27.978
		c0-0.511-0.418-0.931-0.93-0.931c-0.514,0-0.93,0.419-0.93,0.931v11.63c-0.14-0.092-0.326-0.186-0.466-0.231v-3.025
		c0-0.512-0.418-0.931-0.93-0.931c-0.512,0-0.93,0.419-0.93,0.931v1.815c-0.14-0.094-0.326-0.232-0.466-0.326v-2.883
		c0-0.512-0.42-0.932-0.93-0.932c-0.512,0-0.93,0.42-0.93,0.932v1.255c-0.14-0.14-0.328-0.325-0.466-0.466v-0.79
		c0-0.512-0.42-0.932-0.93-0.932c-0.14,0-0.28,0.048-0.42,0.094C3.646,30.769,2.11,26.583,2.11,22.024z"/>
	<path fill="#373636" d="M8.067,21.465v-6.048c0-0.51-0.42-0.931-0.932-0.931c-0.512,0-0.93,0.42-0.93,0.931v6.048
		c0,0.511,0.418,0.93,0.93,0.93C7.647,22.396,8.067,21.977,8.067,21.465z"/>
	<path fill="#373636" d="M4.81,14.486c-0.512,0-0.932,0.42-0.932,0.931v6.048c0,0.511,0.42,0.93,0.932,0.93
		c0.512,0,0.93-0.419,0.93-0.93v-6.048C5.739,14.907,5.322,14.486,4.81,14.486z"/>
	<path fill="#373636" d="M9.461,23.792c0.512,0,0.932-0.42,0.932-0.931v-6.047c0-0.513-0.42-0.932-0.932-0.932
		c-0.512,0-0.93,0.419-0.93,0.932v6.047C8.532,23.372,8.95,23.792,9.461,23.792z"/>
	<path fill="#373636" d="M18.301,22.396c0.512,0,0.932-0.419,0.932-0.93v-4.188c0-0.512-0.42-0.93-0.932-0.93
		c-0.512,0-0.93,0.418-0.93,0.93v4.188C17.371,21.977,17.789,22.396,18.301,22.396z"/>
	<path fill="#373636" d="M20.627,24.722c0.512,0,0.93-0.418,0.93-0.93v-4.187c0-0.513-0.418-0.93-0.93-0.93
		c-0.512,0-0.93,0.417-0.93,0.93v4.187C19.697,24.304,20.115,24.722,20.627,24.722z"/>
</g>
</svg>
