<?xml version="1.0" encoding="utf-8"?>
<!-- Generator: Adobe Illustrator 16.0.0, SVG Export Plug-In . SVG Version: 6.00 Build 0)  -->
<!DOCTYPE svg PUBLIC "-//W3C//DTD SVG 1.1//EN" "http://www.w3.org/Graphics/SVG/1.1/DTD/svg11.dtd">
<svg version="1.1" id="Layer_1" xmlns="http://www.w3.org/2000/svg" xmlns:xlink="http://www.w3.org/1999/xlink" x="0px" y="0px"
	 width="44px" height="44px" viewBox="0 0 44 44" enable-background="new 0 0 44 44" xml:space="preserve">
<path fill="#373636" d="M18.379,39.779v-5.448c0-2.327-1.896-4.22-4.225-4.22H4.48c-2.326,0-4.221,1.893-4.221,4.22v5.448
	C0.26,42.105,2.154,44,4.48,44h9.674c2.328,0,4.223-1.895,4.223-4.221H18.379z M15.963,34.331v5.448
	c0,0.996-0.813,1.806-1.809,1.806H4.48c-0.996,0-1.805-0.81-1.805-1.806v-5.447c0-0.996,0.811-1.805,1.805-1.805h9.674
	C15.15,32.527,15.961,33.336,15.963,34.331z"/>
<path fill="#373636" d="M29.851,19.277c0-2.328-1.894-4.221-4.222-4.221H4.48c-2.328,0-4.221,1.892-4.221,4.221v5.447
	c0,2.327,1.893,4.221,4.221,4.221h21.148c2.328,0,4.222-1.894,4.222-4.221V19.277z M27.436,19.277v5.447
	c0,0.996-0.811,1.805-1.807,1.805H4.48c-0.996,0-1.805-0.809-1.805-1.805v-5.447c0-0.995,0.809-1.805,1.805-1.805h21.148
	C26.625,17.473,27.436,18.281,27.436,19.277z"/>
<path fill="#373636" d="M43.74,4.223C43.74,1.895,41.847,0,39.52,0H4.48C2.152,0,0.26,1.895,0.26,4.223V9.67
	c0,2.326,1.893,4.221,4.221,4.221H39.52c2.327,0,4.221-1.895,4.221-4.221V4.223z M41.324,4.223V9.67c0,0.994-0.81,1.805-1.805,1.805
	H4.48c-0.996,0-1.805-0.811-1.805-1.805V4.223c0-0.996,0.809-1.807,1.805-1.807H39.52C40.516,2.416,41.324,3.227,41.324,4.223z"/>
</svg>
