<?xml version="1.0" encoding="utf-8"?>
<!-- Generator: Adobe Illustrator 16.0.0, SVG Export Plug-In . SVG Version: 6.00 Build 0)  -->
<!DOCTYPE svg PUBLIC "-//W3C//DTD SVG 1.1//EN" "http://www.w3.org/Graphics/SVG/1.1/DTD/svg11.dtd">
<svg version="1.1" id="Layer_1" xmlns="http://www.w3.org/2000/svg" xmlns:xlink="http://www.w3.org/1999/xlink" x="0px" y="0px"
	 width="44px" height="44px" viewBox="0 0 44 44" enable-background="new 0 0 44 44" xml:space="preserve">
<circle fill="#FFFFFF" stroke="#373636" stroke-width="4" stroke-miterlimit="10" cx="22.063" cy="22" r="20"/>
<g>
	<g>
		<path fill="#010101" d="M14.651,9.316c0.029-0.026,0.06-0.053,0.091-0.08C14.711,9.264,14.68,9.29,14.651,9.316z"/>
		<path fill="#010101" d="M26.06,12.678c-0.014-0.232-0.294-0.321-0.487-0.421c0.011-0.211,0.065-0.043,0.056-0.248
			c-0.069-0.004-0.106-0.015-0.173,0.011c-0.149,0.067-0.063,0.085-0.063,0.109c0.004,0.114,0.147-0.024-0.006,0.119
			c-0.042,0.037-0.112,0.037-0.165,0.042c-0.105-0.144-0.097-0.215-0.298-0.221c-0.079,0.085-0.174,0.211-0.219,0.342
			c-0.062,0.198-0.018,0.063-0.013,0.275c-0.002,0.007,0,0.019,0,0.026c-0.002,0.127-0.029-0.023-0.009,0.094
			c0.151-0.032,0.033-0.031,0.15-0.067c0.109-0.038,0.45-0.138,0.546-0.114C25.609,12.678,25.801,12.859,26.06,12.678z"/>
		<path fill="#010101" d="M26.89,13.135c0.162,0.115,0.282,0.186,0.496,0.129c0.032-0.262-0.05-0.25-0.135-0.427
			c0.015-0.021,0.052-0.047,0.056-0.052c0.06-0.079,0.031,0.031,0.06-0.104c-0.156-0.049-0.408-0.211-0.429-0.421
			c0.076-0.061,0.054-0.023,0.111-0.061c0.123-0.081,0.03,0.042,0.103-0.095c-0.061-0.123-0.131-0.143-0.285-0.083
			c-0.071,0.028-0.246,0.154-0.282,0.183c0.024,0.326,0.218,0.45,0.354,0.598C26.922,12.957,26.884,12.918,26.89,13.135z"/>
		<path fill="#373636" d="M39.859,18.765c-0.053-0.084-0.111-0.194-0.164-0.355c-0.351,0.113-0.363,0.124-0.782,0.194l-0.02,0.025
			c-0.161,0.236,0.01,0.137-0.281,0.385c-0.345,0.292-0.569,0.694-0.958,0.928c-0.049,0.417,0.036,0.51-0.069,1.005
			c-0.043,0.178-0.243,0.666-0.479,0.631c-0.079-0.014-0.398-0.806-0.472-1.025c-0.13-0.37-0.271-0.647-0.364-1.077
			c-0.052-0.226-0.088-0.664-0.142-0.815c-0.243,0.036-0.236,0.191-0.471,0.025c-0.171-0.123-0.093-0.193-0.19-0.376
			c-0.192-0.187-0.394-0.372-0.598-0.559c-0.155-0.048-0.761,0.04-1.01,0.012c-0.459-0.043-0.502-0.016-0.771-0.382
			c-0.485,0.023-0.441,0.203-0.909-0.201c-0.311-0.26-0.248-0.681-0.69-0.443c-0.017,0.382,0.165,0.467,0.333,0.644
			c0.119,0.133,0.273,0.225,0.335,0.408c0.009,0.007,0.036,0.176,0.037,0.2c0.438,0.029,0.542-0.182,0.778-0.36
			c0.231,0.22,0.006,0.258,0.341,0.432c0.265,0.133,0.215,0.053,0.39,0.273c0.084,0.294-0.598,1.088-0.823,1.233
			c-0.172,0.111-0.269,0.044-0.425,0.175c-0.229,0.196,0.035,0.168-0.371,0.317c-0.438,0.161-0.868,0.494-1.319,0.521
			c-0.103-0.268-0.199-0.543-0.296-0.817c-0.291-0.938-0.28-0.574-0.576-1.059c-0.137-0.208-0.077-0.344-0.169-0.528
			c-0.069-0.141-0.163-0.202-0.251-0.375c-0.135-0.266-0.29-0.677-0.593-0.638c-0.065,0.212,0.28,0.917,0.366,1.09
			c0.091,0.176,0.227,0.247,0.268,0.492c0.059,0.34-0.015,0.3,0.174,0.528c0.388,0.469-0.02,0.384,0.588,0.845
			c0.452,0.345,0.334,0.448,0.524,0.908c0.295,0.086,1.173-0.31,1.316-0.192c0.187,0.318-0.196,0.831-0.303,1.109
			c-0.317,0.938-0.887,0.922-1.323,1.637c-0.233,0.39-0.345,0.438-0.565,0.903c-0.252,0.526,0.504,1.984,0.052,2.596
			c-0.099,0.137-0.416,0.222-0.816,0.649c-0.423,0.457,0.014,0.376-0.153,1.146c-0.123,0.18-0.28,0.188-0.438,0.316
			c-0.056,0.178-0.008,0.323-0.109,0.546c-0.103,0.27-0.117,0.128-0.269,0.344c-0.11,0.17-0.099,0.241-0.225,0.405
			c-0.113,0.133-0.169,0.18-0.273,0.275c-0.502,0.466-1.585,0.474-1.678,0.415c-0.253-0.218-0.085-0.278-0.143-0.582
			c-0.064-0.272-0.205-0.498-0.323-0.704l-0.012-0.021c-0.059-0.102-0.112-0.202-0.142-0.293c-0.209-0.662-0.136-1.166-0.502-1.836
			c-0.455-0.867,0.257-1.318,0.23-1.806c-0.016-0.13-0.063-0.211-0.069-0.312c-0.088-0.54-0.142-1.026-0.498-1.449
			c-0.394-0.46-0.345-0.3-0.216-1.058c0.165-0.868-0.207-0.648-0.729-0.671c-0.254-0.791-0.752-0.403-1.251-0.171
			c-0.312,0.141-0.427-0.042-0.779,0.01c-0.788,0.107-0.168,0.444-1.22-0.394c-0.441-0.35-0.144-0.171-0.406-0.608
			c-0.085-0.16-0.351-0.367-0.474-0.524c-0.399-0.505,0.078-1.011,0.006-1.589c-0.124-1.069-0.295-0.14,0.302-1.433
			c0.311-0.689,0.785-0.693,0.907-1.001c0.104-0.273,0.032-0.47,0.229-0.723c0.174-0.204,0.425-0.163,0.52-0.483
			c0.142-0.396-0.125-0.447-0.416-0.455c-0.121-0.414-0.121-0.313-0.026-0.695c0.05-0.214,0.005-0.315,0.05-0.53
			c0.118-0.537,1.023-0.005,1.284-0.224c0.121-0.227,0.136-0.45,0-0.672c-0.145-0.216-0.335-0.188-0.433-0.398
			c0.219-0.148,0.058-0.018,0.246-0.059c0.228-0.054,0.196-0.117,0.464-0.168c0.234-0.049,0.391-0.268,0.618-0.415
			c0.333-0.214,0.176-0.405,0.573-0.472c0.643-0.109,0.225-0.094,0.294-0.692c0.101-0.039,0.191-0.079,0.285-0.123
			c0.202,0.266-0.053,0.16,0.191,0.338c0.064-0.04,0.138-0.076,0.207-0.113c-0.036-0.29-0.169-0.233-0.258-0.592
			c-0.316,0.053-0.43,0.323-0.688,0.224c-0.247-0.094-0.261-0.452-0.247-0.75c0.095-0.223,0.556-0.345,0.736-0.401
			c0.288-0.096,0.25-0.292,0.514-0.559c0.351-0.35,0.092,0.005,0.258-0.447c0.384-0.015,0.202-0.028,0.435-0.144l0.011-0.005
			l0.021-0.01c0.13-0.059,0.306-0.074,0.479-0.133c0.64-0.215,0.897-0.107,1.364,0.083c0.356,0.149,1.438,0.154,1.522,0.608
			c-0.265,0.275-0.512,0.078-0.89,0.1c0.073,0.353,0.099,0.353,0.414,0.451c0.057-0.167-0.018-0.103,0.066-0.209
			c0.107,0.023,0.21,0.043,0.313,0.063c0.104-0.361,0.229-0.309,0.579-0.352c-0.06-0.244-0.121-0.174,0.011-0.372
			c0.362,0.037,0.07,0.004,0.245,0.299c0.256-0.035,0.507-0.319,0.859-0.355c0.218-0.024,0.209,0.061,0.522,0.027
			c0.255-0.027,0.243-0.122,0.495-0.014c0.094-0.171,0-0.167,0.227-0.21c0.342-0.06,0.646,0.154,0.977,0.199
			c-0.24-0.306-0.476-0.243-0.171-0.755c0.383-0.081,0.422-0.024,0.589,0.269c0.101-0.054,0.134-0.106,0.18-0.135
			c-0.025-0.019-0.051-0.044-0.076-0.065c-0.145-0.117-0.293-0.228-0.44-0.337c-0.028-0.023-0.057-0.042-0.092-0.065
			c-0.116-0.091-0.247-0.179-0.367-0.267c-0.043-0.029-0.081-0.059-0.118-0.086c-0.157-0.104-0.313-0.206-0.467-0.308
			c-0.014-0.009-0.03-0.017-0.044-0.027c-0.14-0.091-0.285-0.177-0.427-0.266c-0.046-0.029-0.095-0.055-0.139-0.081
			c-0.137-0.081-0.277-0.161-0.414-0.239c-0.028-0.013-0.054-0.028-0.08-0.042c-0.154-0.086-0.317-0.173-0.481-0.256
			c-0.046-0.024-0.098-0.045-0.141-0.069c-0.133-0.065-0.265-0.128-0.397-0.189c-0.038-0.019-0.082-0.042-0.123-0.06
			c-0.167-0.078-0.331-0.148-0.497-0.217C29,5.14,28.952,5.121,28.91,5.101c-0.135-0.054-0.27-0.109-0.403-0.158
			c-0.053-0.02-0.102-0.041-0.152-0.058c-0.171-0.067-0.348-0.129-0.515-0.187c-0.036-0.011-0.069-0.02-0.102-0.03
			c-0.148-0.05-0.295-0.097-0.445-0.141c-0.056-0.018-0.111-0.035-0.167-0.051c-0.159-0.048-0.313-0.09-0.473-0.132
			c-0.026-0.005-0.051-0.014-0.075-0.02c-0.179-0.048-0.364-0.089-0.541-0.131c-0.053-0.014-0.113-0.026-0.172-0.036
			c-0.141-0.033-0.283-0.063-0.427-0.088c-0.047-0.009-0.095-0.018-0.144-0.026c-0.18-0.033-0.362-0.065-0.55-0.091
			c-0.054-0.009-0.109-0.016-0.164-0.024c-0.143-0.02-0.284-0.04-0.429-0.057c-0.055-0.007-0.115-0.012-0.17-0.019
			c-0.182-0.017-0.368-0.035-0.552-0.05c-0.047-0.001-0.096-0.006-0.14-0.007c-0.151-0.013-0.303-0.02-0.457-0.025
			c-0.063-0.004-0.125-0.008-0.188-0.009c-0.178-0.004-0.357-0.007-0.536-0.008h-0.046c-4.439,0-8.505,1.609-11.647,4.28
			l0.007,0.018c0.024,0.038,0.04,0.038,0.063,0.134c-0.29,0.073-0.292,0.121-0.4,0.137C10.02,8.379,9.951,8.439,9.886,8.501
			c0.212,0.07,0.489,0.025,0.694,0.015c0.077-0.141,0.125-0.262,0.256-0.312c0.05-0.021,0.116-0.023,0.203-0.021
			c0.008,0.071,0.028,0.142,0.044,0.21c0,0.004,0.008,0.034,0.008,0.042c0.007-0.004,0.01,0.029,0.016,0.043
			c0.365-0.213,0.058-0.219,0.252-0.605c-0.305-0.061-0.263-0.023-0.455-0.221c0.186-0.204,0.545-0.274,0.811-0.253
			c-0.02,0.184-0.105,0.182-0.034,0.338c0.208-0.13,0.354-0.477,0.688-0.415c0.062,0.049,0.14,0.091,0.208,0.131
			c-0.173,0.164-0.436,0.175-0.659,0.265c-0.1,1.011,0.315,0.166,0.181,0.857c0.246-0.019,0.49-0.199,0.582-0.385
			c-0.092-0.122-0.225-0.122-0.301-0.265c0.06-0.188,0.184-0.328,0.358-0.413C12.857,7.455,13,7.425,13.159,7.425
			c1.843,0.014,0.968,0.1,1.534,0.36c0.131,0.055,0.355,0.083,0.429,0.195c0.116,0.177,0.005,0.345,0.19,0.482
			c0.163,0.121,0.186-0.005,0.399,0.265c-0.044,0.153-0.155,0.313-0.381,0.318c-0.313,0.007-0.127-0.208-0.463-0.177
			c0.006,0.315,0.319,0.437,0.028,0.61c-0.252,0.153-0.092-0.056-0.283,0.051c-0.006,0.004-0.023,0.015-0.028,0.019
			c-0.015,0.008-0.024,0.021-0.029,0.03c-0.033,0.039-0.066,0.073-0.092,0.104C14,9.557,14.087,9.615,13.808,9.305
			c-0.105-0.115-0.121-0.143-0.306-0.128c-0.116,0.002-0.265,0.053-0.376-0.047c0.224-0.285,0.336-0.01,0.667-0.178
			c0.056-0.026,0.42-0.313,0.48-0.376c-0.098-0.224-0.014-0.039-0.157-0.182c-0.323-0.331-0.418-0.248-0.858-0.248
			c-0.204,0.237-0.358,0.532-0.582,0.663c-0.137,0.076-0.297,0.097-0.509,0.004c0.099,0.401,0.352,0.093,0.374,0.578
			c-0.166-0.033-0.253-0.118-0.429-0.057c-0.368,0.139-0.04,0.126-0.009,0.2c0,0.005,0.172,0.022,0,0.088
			c-0.192,0.072-0.03-0.039-0.398-0.256c0.05-0.093,0.104-0.188,0.154-0.287c-0.301,0.09-0.678,0.242-1.027,0.414
			c-0.401,0.201-0.777,0.427-1.002,0.638c-0.006,0.35,0.057,0.116,0.093,0.531c0.538,0.034,0.363,0.196,0.901,0.348
			c0.104,0.027,0.238,0.057,0.399,0.084c0,0.262-0.228,0.458-0.07,0.727c0.375,0.264,0.388-0.252,0.481-0.582
			c1.273-0.267,0.659-0.645,0.987-1.347c0.05-0.106,0.12-0.217,0.222-0.338c0.099,0.005,0.497,0.046,0.584,0.065
			c0.285,0.049,0.133,0.123,0.446,0.259c-0.006,0.252-0.133,0.578,0.237,0.518c0.282-0.053,0.218-0.274,0.563-0.331
			c0.159,0.369,0.117,0.527,0.188,0.968c0.833,0.325,0.463,0.591,0.3,1.201c0.104,0.05,0.215,0.099,0.325,0.145
			c-0.006,0.177-0.012,0.349-0.018,0.523c-0.016,0-0.893-0.193-0.948-0.209c0.133-0.383,0.376-0.386,0.532-0.779
			c-0.312,0.055-0.289,0.153-0.514,0.222c-0.204,0.064-0.359,0.02-0.571,0.047c0.006,0.019,0.011,0.049,0.015,0.104
			c0.011,0.121,0.068,0.005-0.013,0.136c-0.29-0.136-0.189-0.453-0.727-0.158c0.12,0.057,0.241,0.108,0.366,0.158
			c-0.015,0.359-0.044,0.09-0.119,0.326c-0.186,0.609,0.503,0.231,0.683,0.198c-0.048,0.323-0.245,0.323-0.522,0.411
			c-0.307,0.094-0.399,0.219-0.643,0.275c0-0.382-0.056-0.06,0.112-0.327c-0.244,0.022-0.425,0.138-0.655,0.235l-0.022,0.009
			c-0.298,0.12-0.343,0.139-0.377,0.52c-0.252,0.082-0.547,0.17-0.729,0.354c-0.179,0.172-0.355,0.346-0.529,0.512
			c-0.02,0.015-0.032,0.028-0.042,0.038c0.064,0.479,0,0.488-0.29,0.673c-0.243,0.16-0.323,0.156-0.55,0.355
			c-0.722,0.651-0.375,0.349-0.335,1.47c-0.149-0.044-0.295-0.096-0.433-0.147C9.045,16.58,9.195,16.827,8.6,16.653
			c-0.643-0.181-0.554,0.134-0.82,0.187c-0.296,0.066-0.439-0.27-0.871,0.009c-0.235,0.165-0.459,0.273-0.519,0.559
			c-0.069,0.349-0.225,0.606-0.202,0.993c0.04,1.043,0.988,1.105,1.23,0.617c0.164-0.323,0.125-0.504,0.649-0.418
			c0.052,0.277-0.028,0.484-0.098,0.698c-0.044,0.126-0.175,0.352-0.11,0.525c0.377,0.154,0.389-0.134,0.883,0.16
			c0.037,0.504-0.222,1.06,0.158,1.349c0.294,0.218,0.313,0.025,0.571-0.022c0.292-0.053,0.238,0.129,0.504,0.171
			c0.151-0.188,0.088-0.069,0.186-0.298c0.173-0.396,0.221-0.21,0.631-0.452c0.04-0.023,0.075-0.046,0.117-0.075
			c0.045,0.099,0.097,0.192,0.144,0.286c0.3-0.359,0.335-0.011,0.684,0.086c0.149,0.042,0.255,0.058,0.337,0.06
			c0.25,0.003,0.277-0.122,0.62,0.003c0.042,0.018,0.094,0.032,0.143,0.045c0.005,0,0.021,0.011,0.021,0.019
			c0.006,0.005,0.025,0.018,0.029,0.023c0.057,0.066,0.065,0.131,0.111,0.202c0.237,0.227,0.474,0.454,0.705,0.679
			c0.458,0.18,0.458-0.164,0.978,0.349c0.22,0.21,0.12,0.207,0.242,0.476c0.021,0.042,0.052,0.083,0.077,0.133
			c0.045,0.129,0.097,0.246,0.15,0.37c0.239,0.313,0.561,0.117,0.89,0.437c0.19,0.186,0.046,0.131,0.468,0.205
			c0.655,0.104,0.4,0.046,0.898,0.424c0.191,0.14,0.237,0.061,0.417,0.18c0.248,0.354,0.185,0.726-0.023,1.034
			c-0.642,0.943-0.424,0.789-0.451,1.534c-0.023,0.428-0.143,1.31-0.542,1.418c-1.453,0.409-0.609,0.691-0.991,1.417
			c-0.11,0.203-0.19,0.25-0.257,0.417c-0.292,0.682-0.089,0.907-0.944,0.755c0.08,0.145,0.029,0.045,0.109,0.179
			c0.252,0.392,0.296,0.691-0.227,0.787c-0.431,0.093-0.249,0-0.287,0.486c-0.167,0.067-0.245,0-0.353,0.107
			c0.15,0.283,0.012,0.05,0.266,0.213c-0.048,0.152-0.081,0.297-0.121,0.443c-0.1,0.371-0.127,0.033-0.164,0.459
			c0.15,0.066,0.255,0.052,0.388,0.236c-0.017,0.14-0.156,0.518-0.196,0.74c0.214,0.317,0.388,0.661,0.845,0.698
			c-0.005,0.265,0.058,0.239-0.174,0.296c-0.195,0.047-0.614-0.139-0.789-0.232c-0.299-0.163-0.578-0.373-0.781-0.681
			c-0.114-0.178-0.068-0.095-0.188-0.256c-0.221-0.284-0.133-0.414-0.198-0.604c-0.034-0.11-0.213-0.233-0.14-0.598
			c0.02-0.1,0.181-0.587-0.016-0.503c-0.197,0.078,0.149,0.041-0.12,0.171c-0.064-0.171-0.117-0.435-0.153-0.655
			c-0.069-0.367-0.155-0.379-0.197-0.605c-0.087-0.517,0.133-0.571-0.111-1.433c-0.158-0.565-0.093-1.917-0.262-2.612
			c-0.027-0.107-0.061-0.198-0.1-0.275c-0.157-0.255-0.538-0.383-0.844-0.59c-0.018-0.002-0.03-0.006-0.036-0.017
			c-0.42-0.3-0.822-1.464-1.157-1.904c-0.154-0.212-0.254-0.117-0.323-0.447c-0.076-0.3,0.042-0.251,0.139-0.506
			c-0.516-0.947,0.666-0.938,0.423-2.074c-0.054-0.212-0.203-0.504-0.329-0.597c-0.244,0.108-0.129,0.167-0.254,0.372
			c-0.198-0.109-0.392-0.223-0.584-0.335c-0.597-0.577-0.279-0.157-0.445-0.534c-0.362-0.792-0.701-0.35-1.13-0.741
			c-0.193-0.162-0.225-0.421-0.543-0.371c-0.481,0.064-0.212,0.138-0.71-0.094c-0.426-0.201-0.863-0.435-1.158-0.703
			c-0.016-0.563,0.157-0.512-0.271-1.034c-0.276,1.261-0.422,2.572-0.422,3.913c0,0.211,0.004,0.417,0.012,0.621
			c0,0.045,0.003,0.093,0.005,0.133c0.01,0.199,0.017,0.398,0.031,0.591c0,0.01,0,0.015,0.004,0.022
			c0.016,0.203,0.033,0.414,0.055,0.616c0.005,0.041,0.01,0.08,0.013,0.126c0.023,0.181,0.047,0.363,0.073,0.547
			c0.002,0.019,0.006,0.042,0.009,0.06c0.03,0.205,0.063,0.401,0.1,0.602l0.021,0.107c0.033,0.175,0.069,0.351,0.107,0.523
			c0.006,0.031,0.012,0.057,0.017,0.086c0.045,0.199,0.092,0.389,0.144,0.583c0.009,0.029,0.015,0.057,0.024,0.086
			c0.046,0.174,0.092,0.346,0.144,0.513c0.01,0.031,0.018,0.061,0.026,0.094c0.061,0.194,0.121,0.384,0.186,0.572
			c0.003,0.016,0.011,0.039,0.017,0.055c0.061,0.175,0.122,0.343,0.188,0.516c0.012,0.032,0.024,0.066,0.035,0.095
			c0.074,0.191,0.149,0.377,0.227,0.56c0.001,0.004,0.001,0.004,0.005,0.008c0.075,0.184,0.155,0.359,0.236,0.537
			c0.015,0.027,0.025,0.062,0.041,0.09c0.171,0.358,0.352,0.714,0.544,1.061c0.016,0.031,0.033,0.056,0.043,0.084
			c0.197,0.35,0.405,0.692,0.623,1.025c0.013,0.024,0.027,0.048,0.042,0.063c0.218,0.344,0.452,0.67,0.696,0.991
			c0.011,0.02,0.024,0.035,0.036,0.048c0.121,0.156,0.239,0.313,0.364,0.462c0.003,0.007,0.005,0.012,0.011,0.017
			c0.131,0.162,0.262,0.315,0.396,0.473c0.009,0.009,0.018,0.02,0.024,0.024c0.132,0.15,0.264,0.3,0.398,0.441
			c0.008,0.008,0.014,0.013,0.018,0.023c0.285,0.302,0.579,0.589,0.881,0.873c0.009,0.012,0.017,0.019,0.027,0.025
			c0.301,0.279,0.613,0.551,0.934,0.813c0.009,0.004,0.019,0.015,0.03,0.023c0.32,0.255,0.65,0.507,0.988,0.738
			c0.009,0.007,0.023,0.017,0.032,0.024c0.34,0.233,0.688,0.459,1.044,0.671c0.009,0.007,0.021,0.014,0.029,0.015
			c0.358,0.215,0.722,0.418,1.097,0.608c0.009,0,0.013,0.004,0.024,0.008c2.427,1.221,5.167,1.905,8.067,1.905
			c9.982,0,18.067-8.13,18.067-18.16C40.132,20.838,40.035,19.785,39.859,18.765z M22.243,10.335
			c0.046,0.103,0.09,0.208,0.143,0.309c0.072,0.287-0.152,0.051,0.072,0.392c0.178,0.217,0.352,0.431,0.527,0.644
			c-0.109,0.324-0.104,0.35-0.415,0.376c-0.221,0.02-0.472,0.08-0.638,0.07c0.063-0.414-0.056-0.199,0.04-0.436
			c0.108-0.284,0.127-0.071,0.226-0.345c-0.215-0.322-0.44-0.103-0.431-0.753C21.97,10.41,21.938,10.438,22.243,10.335z
			 M31.744,27.124c-0.09,0.254-0.171,0.566-0.254,0.842c-0.122,0.385-0.392,1.62-0.893,1.128c-0.169-0.157-0.166-0.694-0.053-0.906
			c0.304-0.579,0.026-0.439,0.13-0.885c0.082-0.353,0.359-0.267,0.572-0.452c0.187-0.17,0.226-0.472,0.476-0.599
			C31.973,26.604,31.841,26.851,31.744,27.124z M39.834,18.621c0.004,0.046,0.012,0.093,0.025,0.144v0
			C39.854,18.717,39.845,18.667,39.834,18.621z"/>
	</g>
</g>
</svg>
