<?xml version="1.0" encoding="utf-8"?>
<!-- Generator: Adobe Illustrator 16.0.0, SVG Export Plug-In . SVG Version: 6.00 Build 0)  -->
<!DOCTYPE svg PUBLIC "-//W3C//DTD SVG 1.1//EN" "http://www.w3.org/Graphics/SVG/1.1/DTD/svg11.dtd">
<svg version="1.1" id="Layer_1" xmlns="http://www.w3.org/2000/svg" xmlns:xlink="http://www.w3.org/1999/xlink" x="0px" y="0px"
	 width="44px" height="44px" viewBox="0 0 44 44" enable-background="new 0 0 44 44" xml:space="preserve">
<g>
	<path fill="#373636" d="M43.096,39.809l-7.984-7.983c2.74-3.522,4.229-7.75,4.229-12.056C39.341,8.968,30.572,0.2,19.77,0.2
		S0.201,8.967,0.201,19.768c0,10.802,8.768,19.57,19.569,19.57c4.384,0,8.688-1.486,12.055-4.227l7.985,7.986
		c0.469,0.467,1.018,0.701,1.645,0.701c0.625,0,1.173-0.234,1.643-0.701C44.035,42.158,44.035,40.748,43.096,39.809z M36.563,19.847
		c0,9.279-7.514,16.792-16.792,16.792S2.978,29.126,2.978,19.847c0-9.28,7.513-16.792,16.792-16.792S36.563,10.567,36.563,19.847z"
		/>
</g>
</svg>
