<?xml version="1.0" encoding="utf-8"?>
<!-- Generator: Adobe Illustrator 16.0.0, SVG Export Plug-In . SVG Version: 6.00 Build 0)  -->
<!DOCTYPE svg PUBLIC "-//W3C//DTD SVG 1.1//EN" "http://www.w3.org/Graphics/SVG/1.1/DTD/svg11.dtd">
<svg version="1.1" id="Layer_1" xmlns="http://www.w3.org/2000/svg" xmlns:xlink="http://www.w3.org/1999/xlink" x="0px" y="0px"
	 width="16px" height="16px" viewBox="0 0 16 16" enable-background="new 0 0 16 16" xml:space="preserve">
<g>
	<path fill="#4C4C4C" stroke="#4C4C4C" stroke-width="0.67" stroke-miterlimit="10" d="M10.298,11.321
		c-0.128,0.127-0.239,0.268-0.334,0.416l-4.21-2.555c0.11-0.279,0.175-0.583,0.175-0.9c0-0.319-0.065-0.622-0.175-0.902l4.212-2.534
		c0.432,0.678,1.189,1.131,2.055,1.131c1.343,0,2.436-1.093,2.436-2.436c0-1.342-1.093-2.438-2.436-2.438
		c-1.344,0-2.438,1.094-2.438,2.438c0,0.304,0.061,0.599,0.162,0.867L5.527,6.95C5.092,6.287,4.342,5.847,3.489,5.847
		c-1.344,0-2.438,1.092-2.438,2.438c0,1.343,1.093,2.436,2.438,2.436c0.853,0,1.603-0.439,2.038-1.104l4.215,2.56
		c-0.105,0.274-0.16,0.568-0.16,0.871c0,0.649,0.254,1.263,0.714,1.723c0.475,0.473,1.099,0.711,1.723,0.711
		s1.246-0.238,1.723-0.711c0.46-0.462,0.713-1.073,0.713-1.723c0-0.651-0.253-1.264-0.713-1.725
		C12.792,10.369,11.249,10.369,10.298,11.321L10.298,11.321z M12.021,1.592c1.075,0,1.948,0.875,1.948,1.95
		c0,1.074-0.873,1.948-1.948,1.948s-1.949-0.875-1.949-1.948C10.071,2.467,10.945,1.592,12.021,1.592L12.021,1.592z M3.491,10.23
		c-1.073,0-1.947-0.874-1.947-1.948c0-1.075,0.874-1.95,1.947-1.95c1.077,0,1.949,0.875,1.949,1.95
		C5.44,9.356,4.568,10.23,3.491,10.23L3.491,10.23z M13.399,14.425c-0.761,0.76-1.999,0.76-2.757,0
		c-0.368-0.371-0.57-0.861-0.57-1.379c0-0.522,0.202-1.012,0.57-1.378c0.379-0.381,0.879-0.573,1.378-0.573s0.998,0.191,1.379,0.573
		c0.368,0.366,0.57,0.855,0.57,1.378C13.969,13.563,13.767,14.054,13.399,14.425L13.399,14.425z"/>
</g>
<line fill="none" stroke="#4C4C4C" stroke-width="1.2" stroke-linecap="round" stroke-miterlimit="10" x1="43.741" y1="-0.103" x2="43.741" y2="11.992"/>
<line fill="none" stroke="#4C4C4C" stroke-width="1.2" stroke-linecap="round" stroke-miterlimit="10" x1="57.881" y1="13.93" x2="45.785" y2="13.93"/>
<g>
	<g>
		<polyline fill="none" stroke="#4C4C4C" stroke-width="1.2" stroke-linecap="round" stroke-miterlimit="10" points="57.567,9.913 
			56.6,10.882 55.675,9.913 		"/>
	</g>
	<g>
		<polyline fill="none" stroke="#4C4C4C" stroke-width="1.2" stroke-linecap="round" stroke-miterlimit="10" points="48.546,2.304 
			47.578,1.336 48.546,0.412 		"/>
	</g>
	<path fill="none" stroke="#4C4C4C" stroke-width="1.2" stroke-linecap="round" stroke-miterlimit="10" d="M48.369,1.371
		c4.572,0,8.278,3.707,8.278,8.277"/>
</g>
<line fill="none" stroke="#4C4C4C" stroke-width="1.2" stroke-linecap="round" stroke-miterlimit="10" x1="66.217" y1="2.321" x2="66.217" y2="14.157"/>
<line fill="none" stroke="#4C4C4C" stroke-width="1.2" stroke-linecap="round" stroke-miterlimit="10" x1="71.75" y1="-0.103" x2="71.75" y2="13.233"/>
<g>
	<g>
		<polyline fill="none" stroke="#4C4C4C" stroke-width="1.2" stroke-linecap="round" stroke-miterlimit="10" points="73.331,12.388 
			71.758,13.886 70.258,12.388 		"/>
	</g>
	<g>
		<polyline fill="none" stroke="#4C4C4C" stroke-width="1.2" stroke-linecap="round" stroke-miterlimit="10" points="64.682,2.076 
			66.262,0.586 67.754,2.094 		"/>
	</g>
</g>
<g id="Layer_1_1_">
	<g>
		<g>
			<path fill="#4C4C4C" stroke="#4C4C4C" stroke-width="0.2" stroke-miterlimit="10" d="M88.996,9.874
				c0.027,0.027,0.057,0.053,0.088,0.073c0.016,0.009,0.031,0.017,0.045,0.023c0.019,0.011,0.036,0.022,0.055,0.03
				c0.021,0.01,0.039,0.013,0.059,0.019c0.018,0.005,0.033,0.012,0.051,0.014c0.037,0.009,0.074,0.012,0.113,0.012
				c0.038,0,0.076-0.003,0.113-0.012c0.018-0.003,0.034-0.011,0.051-0.014c0.02-0.006,0.039-0.011,0.058-0.019
				c0.021-0.009,0.04-0.02,0.058-0.031c0.014-0.007,0.029-0.014,0.043-0.022c0.032-0.021,0.063-0.046,0.089-0.073l3.479-3.479
				c0.227-0.226,0.227-0.594,0-0.821c-0.228-0.226-0.594-0.226-0.819,0l-2.489,2.492v-8.458c0-0.32-0.261-0.58-0.581-0.58
				s-0.58,0.259-0.58,0.58v8.458l-2.488-2.492c-0.227-0.226-0.594-0.226-0.819,0c-0.228,0.227-0.228,0.595,0,0.821L88.996,9.874z"/>
			<path fill="#4C4C4C" stroke="#4C4C4C" stroke-width="0.2" stroke-miterlimit="10" d="M95.205,9.465c-0.32,0-0.58,0.261-0.58,0.58
				v2.898H84.189v-2.899c0-0.318-0.262-0.579-0.581-0.579s-0.58,0.261-0.58,0.579v3.479c0,0.319,0.261,0.58,0.58,0.58h11.596
				c0.32,0,0.58-0.261,0.58-0.58v-3.479C95.785,9.726,95.524,9.465,95.205,9.465z"/>
		</g>
	</g>
</g>
</svg>
