<?xml version="1.0" encoding="utf-8"?>
<!-- Generator: Adobe Illustrator 16.0.0, SVG Export Plug-In . SVG Version: 6.00 Build 0)  -->
<!DOCTYPE svg PUBLIC "-//W3C//DTD SVG 1.1//EN" "http://www.w3.org/Graphics/SVG/1.1/DTD/svg11.dtd">
<svg version="1.1" id="Capa_1" xmlns="http://www.w3.org/2000/svg" xmlns:xlink="http://www.w3.org/1999/xlink" x="0px" y="0px"
	 width="50px" height="44.16px" viewBox="175 177.92 50 44.16" enable-background="new 175 177.92 50 44.16" xml:space="preserve">
<g>
	<g>
		<g>
			<path fill="#282324" d="M222.03,180.711c-0.119-1.516-1.268-2.791-2.711-2.791h-38.64c-1.444,0-2.592,1.275-2.713,2.791h-0.047
				v38.425c0,1.625,1.237,2.944,2.76,2.944h38.64c1.523,0,2.76-1.319,2.76-2.944v-38.425H222.03z M191.72,219.136h-11.04v-8.832
				h11.04V219.136z M191.72,207.604h-11.04v-9.077h11.04V207.604z M191.72,195.584h-11.04v-8.832h11.04V195.584z M205.52,219.136
				h-11.04v-8.832h11.04V219.136z M205.52,207.604h-11.04v-9.077h11.04V207.604z M205.52,195.584h-11.04v-8.832h11.04V195.584z
				 M219.319,219.136h-11.04v-8.832h11.04V219.136z M219.319,207.604h-11.04v-9.077h11.04V207.604z M219.319,195.584h-11.04v-8.832
				h11.04V195.584z"/>
		</g>
	</g>
</g>
</svg>
