<?xml version="1.0" encoding="utf-8"?>
<!-- Generator: Adobe Illustrator 16.0.0, SVG Export Plug-In . SVG Version: 6.00 Build 0)  -->
<!DOCTYPE svg PUBLIC "-//W3C//DTD SVG 1.1//EN" "http://www.w3.org/Graphics/SVG/1.1/DTD/svg11.dtd">
<svg version="1.1" id="Layer_1" xmlns="http://www.w3.org/2000/svg" xmlns:xlink="http://www.w3.org/1999/xlink" x="0px" y="0px"
	 width="44px" height="43.479px" viewBox="0 0 44 43.479" enable-background="new 0 0 44 43.479" xml:space="preserve">
<g id="Layer_2" display="none">
</g>
<g id="Layer_1_2_">
	<g>
		<path fill="#373636" d="M4.61,16.99c-2.267,0-4.11,1.342-4.11,2.99v20.017c0,1.647,1.843,2.989,4.11,2.989h3.362
			c2.267,0,4.11-1.342,4.11-2.989V19.98c0-1.648-1.843-2.99-4.11-2.99H4.61z M9.729,19.98v20.017c0,0.704-0.787,1.278-1.758,1.278
			H4.61c-0.972,0-1.76-0.574-1.76-1.278V19.98c0-0.705,0.789-1.279,1.76-1.279h3.362C8.942,18.7,9.729,19.275,9.729,19.98z"/>
		<path fill="#373636" d="M20.235,8.99c-2.266,0-4.109,2.173-4.109,4.838v24.241c0,2.667,1.843,4.837,4.109,4.837h3.363
			c2.266,0,4.11-2.17,4.11-4.837V13.825c0-2.664-1.845-4.836-4.11-4.836H20.235L20.235,8.99z M25.355,13.825v24.241
			c0,1.142-0.788,2.068-1.758,2.068h-3.363c-0.97,0-1.758-0.926-1.758-2.068V13.825c0-1.137,0.788-2.068,1.758-2.068h3.363
			C24.568,11.76,25.355,12.686,25.355,13.825z"/>
		<path fill="#373636" d="M35.86,0.406c-2.265,0-4.108,1.85-4.108,4.125v34.249c0,2.273,1.844,4.125,4.108,4.125h3.363
			c2.267,0,4.11-1.852,4.11-4.125V4.531c0-2.275-1.844-4.125-4.11-4.125H35.86z M40.982,4.531v34.249
			c0,0.973-0.789,1.764-1.759,1.764H35.86c-0.968,0-1.758-0.791-1.758-1.764V4.531c0-0.973,0.79-1.763,1.758-1.763h3.363
			C40.193,2.768,40.982,3.558,40.982,4.531z"/>
	</g>
</g>
</svg>
