<?xml version="1.0" encoding="utf-8"?>
<!-- Generator: Adobe Illustrator 16.0.0, SVG Export Plug-In . SVG Version: 6.00 Build 0)  -->
<!DOCTYPE svg PUBLIC "-//W3C//DTD SVG 1.1//EN" "http://www.w3.org/Graphics/SVG/1.1/DTD/svg11.dtd">
<svg version="1.1" id="Capa_1" xmlns="http://www.w3.org/2000/svg" xmlns:xlink="http://www.w3.org/1999/xlink" x="0px" y="0px"
	 width="31.726px" height="26.525px" viewBox="666.904 370.824 31.726 26.525"
	 enable-background="new 666.904 370.824 31.726 26.525" xml:space="preserve">
<g>
	<g>
		<path fill="#636363" d="M698,374.699c-1.104,0.489-2.288,0.821-3.533,0.969c1.271-0.761,2.244-1.968,2.705-3.402
			c-1.192,0.705-2.508,1.217-3.91,1.494c-1.123-1.198-2.721-1.944-4.492-1.944c-3.398,0-6.154,2.755-6.154,6.152
			c0,0.482,0.054,0.952,0.159,1.402c-5.114-0.257-9.648-2.707-12.684-6.43c-0.531,0.907-0.833,1.965-0.833,3.093
			c0,2.135,1.087,4.019,2.737,5.122c-1.008-0.034-1.957-0.311-2.787-0.772v0.077c0,2.981,2.122,5.469,4.936,6.035
			c-0.516,0.139-1.059,0.215-1.622,0.215c-0.397,0-0.782-0.039-1.158-0.114c0.783,2.446,3.056,4.226,5.748,4.274
			c-2.105,1.649-4.76,2.63-7.643,2.63c-0.497,0-0.986-0.029-1.468-0.084c2.724,1.749,5.958,2.769,9.433,2.769
			c11.321,0,17.51-9.377,17.51-17.509l-0.021-0.797C696.132,377.017,697.178,375.933,698,374.699z"/>
	</g>
</g>
</svg>
