<?xml version="1.0" encoding="utf-8"?>
<!-- Generator: Adobe Illustrator 16.0.0, SVG Export Plug-In . SVG Version: 6.00 Build 0)  -->
<!DOCTYPE svg PUBLIC "-//W3C//DTD SVG 1.1//EN" "http://www.w3.org/Graphics/SVG/1.1/DTD/svg11.dtd">
<svg version="1.1" id="Layer_1" xmlns="http://www.w3.org/2000/svg" xmlns:xlink="http://www.w3.org/1999/xlink" x="0px" y="0px"
	 width="44px" height="44px" viewBox="874 874 44 44" enable-background="new 874 874 44 44" xml:space="preserve">
<g transform="translate(0,-952.36218)">
	<path fill="#363636" stroke="#363636" stroke-miterlimit="10" d="M895.554,1828.809c-10.784,0-19.554,8.771-19.554,19.554
		c0,10.783,8.771,19.553,19.554,19.553s19.554-8.771,19.554-19.553c0-4.264-1.622-8.438-4.027-11.763l3.333,0.625
		c0.725,0.138,1.424-0.337,1.563-1.063c0.138-0.725-0.338-1.424-1.063-1.562l-7.111-1.333c-0.133-0.025-0.269-0.03-0.402-0.014
		c-0.611,0.073-1.094,0.555-1.167,1.167l-0.889,7.11c-0.147,0.722,0.318,1.426,1.04,1.574c0.721,0.147,1.426-0.318,1.573-1.04
		c0.014-0.071,0.022-0.143,0.025-0.215l0.528-4.208c2.301,3.002,3.93,6.942,3.93,10.722c0,9.342-7.545,16.887-16.887,16.887
		c-9.343,0-16.888-7.545-16.888-16.887c0-9.343,7.545-16.888,16.888-16.888c0.704,0.01,1.347-0.629,1.347-1.333
		C896.901,1829.438,896.258,1828.799,895.554,1828.809z M895.096,1835.808c-0.736,0.008-1.327,0.611-1.319,1.347
		c0,0.004,0,0.009,0,0.014v12.526c0,0.736,0.597,1.333,1.333,1.333h9.68c0.736,0.011,1.342-0.578,1.353-1.314
		s-0.578-1.34-1.314-1.351c-0.013,0-0.025,0-0.038,0h-8.346v-11.194c0.015-0.736-0.569-1.345-1.305-1.361
		C895.124,1835.808,895.11,1835.808,895.096,1835.808z"/>
</g>
</svg>
