<?xml version="1.0" encoding="utf-8"?>
<!-- Generator: Adobe Illustrator 16.0.0, SVG Export Plug-In . SVG Version: 6.00 Build 0)  -->
<!DOCTYPE svg PUBLIC "-//W3C//DTD SVG 1.1//EN" "http://www.w3.org/Graphics/SVG/1.1/DTD/svg11.dtd">
<svg version="1.1" id="Layer_1" xmlns="http://www.w3.org/2000/svg" xmlns:xlink="http://www.w3.org/1999/xlink" x="0px" y="0px"
	 width="44px" height="44px" viewBox="0 0 44 44" enable-background="new 0 0 44 44" xml:space="preserve">
<g>
	<g>
		<path fill="#363636" d="M21.561,36.157c-9.567,0-17.395-7.827-17.395-17.396c0-9.567,7.828-17.395,17.395-17.395
			c9.566,0,17.395,7.828,17.395,17.395C38.955,28.33,31.127,36.157,21.561,36.157z M21.561,5.019
			c-7.653,0-13.916,6.263-13.916,13.917s6.263,13.916,13.916,13.916c7.654,0,13.916-6.262,13.916-13.916S29.215,5.019,21.561,5.019z
			"/>
	</g>
	<g>
		<path fill="#363636" d="M42.262,41.896c-0.522,0-0.871-0.174-1.219-0.522l-9.741-9.739c-0.696-0.696-0.696-1.739,0-2.437
			c0.696-0.694,1.739-0.694,2.437,0l9.74,9.742c0.695,0.696,0.695,1.739,0,2.434C43.13,41.723,42.783,41.896,42.262,41.896z"/>
	</g>
	<g>
		<path fill="#363636" d="M28.519,20.327H14.776c-1.043,0-1.739-0.696-1.739-1.74c0-1.043,0.696-1.739,1.739-1.739h13.742
			c1.043,0,1.74,0.696,1.74,1.739C30.259,19.631,29.389,20.327,28.519,20.327z"/>
	</g>
</g>
</svg>
